/* XPM */
static char *_f890335fb9c49daf201d2bfc5ff7ceaiDG8gciivIofRLs7[] = {
/* columns rows colors chars-per-pixel */
"64 64 194 2 ",
"   c None",
".  c #461F00",
"X  c #452301",
"o  c #4B2500",
"O  c #4F2B00",
"+  c #512501",
"@  c #5A2701",
"#  c #542B01",
"$  c #5B2C01",
"%  c #563000",
"&  c #5D3200",
"*  c #632E01",
"=  c #643300",
"-  c #6C3201",
";  c #6D3801",
":  c #743601",
">  c #7C3602",
",  c #763A01",
"<  c #7D3B01",
"1  c #754201",
"2  c #7B4601",
"3  c #813F00",
"4  c #923F01",
"5  c #834100",
"6  c #8D4400",
"7  c #864C01",
"8  c #8C4B01",
"9  c #934501",
"0  c #964A00",
"q  c #9E4D01",
"w  c #935301",
"e  c #9B5301",
"r  c #A64D01",
"t  c #A55302",
"y  c #AC5501",
"u  c #A65C02",
"i  c #AE5D00",
"p  c #B45D00",
"a  c #BA5D00",
"s  c #AF6000",
"d  c #A96901",
"f  c #B36701",
"g  c #BD6300",
"h  c #B46D01",
"j  c #BD6A01",
"k  c #B77101",
"l  c #BC7201",
"z  c #C36400",
"x  c #C86600",
"c  c #C56900",
"v  c #CA6B00",
"b  c #C67201",
"n  c #CC7300",
"m  c #C17E02",
"M  c #CD7B01",
"N  c #D37400",
"B  c #D97700",
"V  c #D57A01",
"C  c #DB7C00",
"Z  c #E17F00",
"A  c #CC8403",
"S  c #CC8902",
"D  c #D48205",
"F  c #DD8300",
"G  c #D28905",
"H  c #DF8902",
"J  c #DC870A",
"K  c #D38808",
"L  c #DC9501",
"P  c #D99808",
"I  c #E38400",
"U  c #E88700",
"Y  c #E58B00",
"T  c #E98D00",
"R  c #E18B0A",
"E  c #F38D01",
"W  c #E49002",
"Q  c #EC9400",
"!  c #E59A03",
"~  c #ED9B01",
"^  c #EB9209",
"/  c #ED9F08",
"(  c #F19602",
")  c #F39C00",
"_  c #F1920A",
"`  c #F59B0A",
"'  c #E99613",
"]  c #ED9C12",
"[  c #E0A001",
"{  c #EDA202",
"}  c #EBAE04",
"|  c #EEA309",
" . c #EEAD0B",
".. c #F6A300",
"X. c #F9A500",
"o. c #F5AB02",
"O. c #FAAB00",
"+. c #F7AC0A",
"@. c #F9AE09",
"#. c #F2A10C",
"$. c #EAB40B",
"%. c #F5B203",
"&. c #FCB301",
"*. c #F6B803",
"=. c #FDBB03",
"-. c #F5B30B",
";. c #FAB30B",
":. c #F5BB0B",
">. c #FBBA0C",
",. c #F6AC12",
"<. c #F8AF16",
"1. c #F2A113",
"2. c #F6B412",
"3. c #F9B410",
"4. c #F3BB13",
"5. c #FBBC13",
"6. c #F6BA1C",
"7. c #FEC205",
"8. c #FEC907",
"9. c #FDC40A",
"0. c #F5C90D",
"q. c #FECB0C",
"w. c #F5C30C",
"e. c #FFD20F",
"r. c #FCC413",
"t. c #FCCC13",
"y. c #FCC21A",
"u. c #FCCB1A",
"i. c #FED313",
"p. c #FFD915",
"a. c #FCD31C",
"s. c #FEDB1B",
"d. c #FFE11D",
"f. c #F9C721",
"g. c #FBCC25",
"h. c #FCCF2E",
"j. c #FDD522",
"k. c #FDDB22",
"l. c #FCD32B",
"z. c #FDDC2A",
"x. c #FDD733",
"c. c #FDDE33",
"v. c #FEDE3A",
"b. c #FEE424",
"n. c #FFE927",
"m. c #FDE32D",
"M. c #FFEB2C",
"N. c #FEE534",
"B. c #FEED33",
"V. c #FDE33A",
"C. c #FEEC3B",
"Z. c #FFF032",
"A. c #FFF136",
"S. c #FFF135",
"D. c #FEF139",
"F. c #FEF33E",
"G. c #FEF53D",
"H. c #FEF23B",
"J. c #FEED43",
"K. c #FCE14B",
"L. c #FEF242",
"P. c #FEF245",
"I. c #FFF645",
"U. c #FEF543",
"Y. c #FFF947",
"T. c #FFF749",
"R. c #FEF54A",
"E. c #FEF24D",
"W. c #FEF54C",
"Q. c #FFF44B",
"!. c #FFF94E",
"~. c #FFF94D",
"^. c #FFF84C",
"/. c #F9E652",
"(. c #FEEC53",
"). c #FEEE5C",
"_. c #FEF752",
"`. c #FEF454",
"'. c #FFF851",
"]. c #FFF956",
"[. c #FFF955",
"{. c #FEF35B",
"}. c #FFFB59",
"|. c #FFFA5A",
" X c #FEF95B",
".X c #FEED64",
"XX c #FEF663",
"oX c #FFFB65",
"OX c #FEFA64",
"+X c #FEF76E",
"@X c #FFFC6B",
"#X c #FFFB6C",
"$X c #FEFC74",
"%X c #FFFD7C",
/* pixels */
"                                                                                                                                ",
"                                                                                                                                ",
"                                                                                                                                ",
"                                                                                                                                ",
"                                                                                                                                ",
"                                                                                                                                ",
"                                                                                                                                ",
"                                                                                                                                ",
"                                                              ^ ] ] ' ] ^ F                                                     ",
"                                                            ` l.E.`.`.P.B.u.-./ Y                                               ",
"                                                        E ,.c.P.R.W.W.R.L.F.H.N.m.t.%.T N                                       ",
"                                                      ( 3.m.N.N.C.H.H.B.B.H.H.A.B.d.e.>.o.%.D                                   ",
"                                                    ` f.C.N.5.@.2.z.B.M.M.B.M.M.M.M.n.b.d.p. .D N                               ",
"                                                  +.u.L.C.>.) ) ( 4.B.B.M.B.M.s.r.t.u.b.M.M.M.a.F V                             ",
"                                                ` l.P.!.l.) ) ) ( 2.B.B.B.B.b.&.....O.r.m.B.B.M.u.| C                           ",
"                                                <.N.I.'.x...X.O.@.z.H.B.B.B.u...) ) ..) +.b.M.M.M.a.Q C                         ",
"                                              #.V.[.'.R.P.N.m.N.C.R.G.B.B.m.+.( ) ..) ( ( >.b.b.b.b.k.4.C                       ",
"                                            _ z.}.oX@XoX}.}.!.!.}.}.R.A.M.k.` ) ......) ) o.d.b.b.b.M.b.-.Y                     ",
"                                          ,.z.H.OXoXOX@X}.[.}.!._.}.[.F.M.j.....X.X...) ( #.b.b.b.b.M.M.b.:.!                   ",
"                                      ` u.C.G.U.'.B.B.P.I.T.'.L.B.L.I.I.F.C.5.O.X.X.....@.u.M.B.M.n.M.n.b.b.0.V                 ",
"                                    ( -.C. X'.R.V.a.u.a.B.Z.M.Z.R.I.G.!.W._.E.5.X.O.X...r.Z.A.B.M.M.M.n.n.n.i.W                 ",
"                                  1.g.C.R.].P.N.-.......y.M.M.B.H.H.U.}.[.I.U.m.r.&.;.@.u.B.A.B.B.A.M.b.b.b.a.W p               ",
"                                  ,.J.I.L.F.F.c.@.....) -.B.M.M.M.H.G.F.L.U.U.Y.`.(.).(.J.R.R.F.H.C.u.o.o.o.~ Y p               ",
"                                ` &.z.H.H.B.B.y...X.X.>.a.M.M.M.M.k.u.5.>.5.l.[.@X$X#XW.G.P.C.6.2.5...Q Y Y I C p               ",
"                                ..O.;.z.A.B.B.j.;.X.X.a.H.A.M.M.k.%.) ....) O.V.OXOXE.N.j.2.-.Q T Y Y I I C I C g               ",
"                              ) ) O.&.z.I.H.B.B.N.u.y.m.H.H.A.m.| F F T Q Q ) l.].v.u.5.) Q Y F V v N C C C C C g               ",
"                          O.O...O.r.j.H.I.F.H.F.Y.G.Z.A.A.A.A.N.Y V C F I Q @.z.J.r.O.) ) Q C v c g z V I I Z C g               ",
"                      ` >.a.p.a.c.E._.'.!.I.H.A.F.F.A.H.A.B.b.t.F V C C C / z.b.z.&.X.) Q I c a a a a c T T I C c               ",
"                    ^ ;.j.H.A.I.'.[.[.oX$X#X}.H.B.H.B.B.s.p.e.7.~ F C F Y o.a.a.9.&...T v c z z z z a c Y Y I C g               ",
"                  ` 2.C._.OX#X$X#XoXoX$X%X+XXX].j.k.m.a.=.7.7.=.7.>.o.o.9.q.9.7.q.&.) C z c C Y Q I a v T T V z p               ",
"                ` @.J.OXoXOX$X%X$X#Xv.K..Xl.r.y.@.&.=.&.&.&.&.&.=.7.9.t.q.i.q.=.=.O.) C v v T ) ) Y a v Q T N v a               ",
"              +.,.c.@X#XoX#X$X#XXX(.>.O.;.O.O.O.O.&.&.&.&.&.&.&.&.&.9.i.9.=.=.&.&.O.) N v C ( ( ( Y v V Y Y C B g               ",
"            T g.].@X$X$X#X#X+Xh.5.y.&.X.O.O.O.O.O.O.o.~ o.&.O.O.O.O.&.=.&.&.O.O.O.O.X.Y F Y T T Q ~ ~ Q I I Z B p               ",
"            R /.@X#X{.).K.g.g.;.O.O.O.O.X.X.X.X.~ H n c n F O.O.O.O.&.&.O.&.O.) ....O.&.X.T T ) o.=.=...I U I C y               ",
"            J K.{.{.x.>.>.O.O.O.O.X.X.X...X...Q n z z z c V X.O.O.O.O.O.O.X.) ) ) ) O.&.&.&.&.&.&.O.X.( U I Z V y               ",
"            V :.>.r.u.&.&.O.O.O.X...........W g a z c v c V X.&.O...) X...F F Y Q ) X.O.O.&.&.&.O.X.T U U I B z q               ",
"            b o.X.O.9.=.&.O.O...) ) ) ..X.) N a a v N V N C o.7.&...) ) F c c N C ~ X.X.......X...) I I I I N y <               ",
"            b o.X.O.9.9.&.X.) ) ) ) ) ..O.) n a g v V V F -.q.7.O...) I v c c v v Y X.X.........) I I U I I C c :               ",
"            n %.O.O.t.9.O.X.) ) ) ) ) ) ..) F b v V I Y Q t.p.=.O.~ C v c v n v x F O.O.O.X.....) I I U I I I v <               ",
"            n o.O.O.&.&.O.O.X...) ) Q Q ..X.o.X.) Q ~ o.%.q.q.O.O.Q v v z N Y I N Y &.O.) ) ) Q I C Z I Z I N y ,               ",
"              X.X.O.&.&.O.O.O.X.) Q N V X.O.O.X...&.=.i.i.=.....O.Y c c c C Q Q T { 7.~ C U I Z C Z Z B B N y <                 ",
"              H Y Q { &.&.&.O.) Q Y v V ..&.&.&.&.7.7.9.=.O...O.O.~ v v N I Q ) ..&.7...Y Y Y I Z C g 6 0 6 * #                 ",
"                a N V ~ =.=.&...) ~ F F o.=.&.&.=.&.&.&.O.O.O.&.O...Q V N I Q =.7.7.7.O.) Q Y N i 3 = o o o #                   ",
"                c n F ~ =.&.O.O.X.O.9.9.q.8.&.O.O.O.X.X.X.O.O.X.O.X.) Y Y ~ &.7.=.[ d w w 8 5 , = #                             ",
"                n V *.q.q.=.&.&.&.=.q.i.e.7.O.) ) Q Y F N I ..X.O.O.O.&.%.%.} L h , @ + o o # % &                               ",
"            D 4.:. .q.p.q.7.=.=.&.&.7.t.9.O...Q T V 0 , - 5 M ) O.o.{ L k w 2 = & # % %                                         ",
"            P b.b.d.s.s.=.=.7.=.O.O.O.X.) ) Q I I p @ X . . ; f h 7 1 = & = & &               S L m e                           ",
"            K r.q.i.p.t.&.X.&.&.X...Q Q T M b j j 5 # X X o # $ & & =                       L :.q.0.A i                         ",
"            M &.&.=.7.&...) O.X.Q F N b e * * * $ #                                       f %.q.e.q...s                         ",
"            M &.&.=.%.Q Q Y Y Q g q 9 5 * # # O                                           j =.=.&.&.Y 0                         ",
"            b X.&.=.{ C I c q e - @ = & %                                 A $.w.} j       u ! ..) Q j <                         ",
"            j M b A l t 0 - + # # #                                       $.p.s.q.b         6 t t 9 >                           ",
"                - * # # #                                                 G ! ! L j                                             ",
"                                                                          q t r 4                                               ",
"                                                                                                                                ",
"                                                                                                                                ",
"                                                                                                                                ",
"                                                                                                                                ",
"                                                                                                                                ",
"                                                                                                                                ",
"                                                                                                                                ",
"                                                                                                                                ",
"                                                                                                                                ",
"                                                                                                                                "
};
