/* XPM */
static char *result[] = {
/* columns rows colors chars-per-pixel */
"64 64 227 2 ",
"   c #571B02",
".  c #5B1D02",
"X  c #5E2A03",
"o  c #652403",
"O  c #6B2502",
"+  c #6D2904",
"@  c #732A04",
"#  c #7A2E05",
"$  c #722705",
"%  c #6C3603",
"&  c #763006",
"*  c #7D3307",
"=  c #773D07",
"-  c #7A4307",
";  c #843406",
":  c #893607",
">  c #843D06",
",  c #8D3A07",
"<  c #853508",
"1  c #8A3608",
"2  c #873E08",
"3  c #8D3A08",
"4  c #923B07",
"5  c #933C09",
"6  c #993F09",
"7  c #864305",
"8  c #8B4505",
"9  c #854806",
"0  c #8A4A06",
"q  c #8C4309",
"w  c #824908",
"e  c #8C4D09",
"r  c #934B04",
"t  c #944309",
"y  c #9C4209",
"u  c #944C08",
"i  c #9E4B0B",
"p  c #984906",
"a  c #8E5006",
"s  c #9A5304",
"d  c #955309",
"f  c #9C5309",
"g  c #95590A",
"h  c #9A5B05",
"j  c #985E10",
"k  c #A2460A",
"l  c #A54A0B",
"z  c #AB4C0B",
"x  c #A14A07",
"c  c #B14F0C",
"v  c #AD5602",
"b  c #AD5C03",
"n  c #A3520B",
"m  c #AD520B",
"M  c #A25D09",
"N  c #AC5B0C",
"B  c #A65A03",
"V  c #B45A04",
"C  c #BA5E02",
"Z  c #B3530C",
"A  c #B9570D",
"S  c #B55A0D",
"D  c #BB5B0E",
"F  c #B25704",
"G  c #BE5E10",
"H  c #AB5911",
"J  c #9E6009",
"K  c #9F6112",
"L  c #A86608",
"P  c #BC6101",
"I  c #B46D05",
"U  c #BC6A02",
"Y  c #B4620C",
"T  c #BC620D",
"R  c #B96709",
"E  c #BB7409",
"W  c #B97507",
"Q  c #AE6612",
"!  c #AC6B13",
"~  c #A56512",
"^  c #B56510",
"/  c #BC6411",
"(  c #B56A11",
")  c #BB6C13",
"_  c #C15E0F",
"`  c #C15F10",
"'  c #C26601",
"]  c #C56B01",
"[  c #CA6E00",
"{  c #C3620E",
"}  c #C9660F",
"|  c #C56B0C",
" . c #CB6A0E",
".. c #C47203",
"X. c #CD7201",
"o. c #CD7A01",
"O. c #C9760B",
"+. c #D27500",
"@. c #D57A01",
"#. c #DB7D00",
"$. c #D3730E",
"%. c #D47C0C",
"&. c #DC7D0F",
"*. c #C46310",
"=. c #C96611",
"-. c #C56B11",
";. c #CC6B11",
":. c #D16E12",
">. c #C67111",
",. c #CB7316",
"<. c #D47313",
"1. c #D97714",
"2. c #DC7B15",
"3. c #DA7C19",
"4. c #E07E00",
"5. c #E07E17",
"6. c #CF8105",
"7. c #C88505",
"8. c #D48202",
"9. c #DD8300",
"0. c #DC8A02",
"q. c #D6860B",
"w. c #DB9607",
"e. c #DD8212",
"r. c #D98417",
"t. c #DB9E10",
"y. c #E38400",
"u. c #E48B01",
"i. c #E88B00",
"p. c #E68B06",
"a. c #E59302",
"s. c #EB9400",
"d. c #ED9C01",
"f. c #EB9C0A",
"g. c #E7970A",
"h. c #F29D00",
"j. c #E18315",
"k. c #E48C14",
"l. c #E38318",
"z. c #E88D18",
"x. c #E49A14",
"c. c #ED9C16",
"v. c #E99515",
"b. c #ECA203",
"n. c #ECA40D",
"m. c #E5A409",
"M. c #F5A301",
"N. c #F8A600",
"B. c #F5AB03",
"V. c #F9AC01",
"C. c #F5AB0B",
"Z. c #F6AA0A",
"A. c #ECB10D",
"S. c #F3B204",
"D. c #FBB303",
"F. c #FCBB05",
"G. c #F4B40C",
"H. c #FAB50B",
"J. c #F4BA0C",
"K. c #FBBC0A",
"L. c #EEA419",
"P. c #EBAB12",
"I. c #F2AB1B",
"U. c #F2AB16",
"Y. c #ECB414",
"T. c #F3B413",
"R. c #FABD13",
"E. c #F4BB1A",
"W. c #F6B818",
"Q. c #ED9823",
"!. c #E68E20",
"~. c #E8A423",
"^. c #F3B420",
"/. c #F2BC21",
"(. c #FDC106",
"). c #FCC40B",
"_. c #FDC90D",
"`. c #F5C10E",
"'. c #FBC414",
"]. c #FBCC13",
"[. c #F6C31B",
"{. c #FAC41B",
"}. c #FBCD1B",
"|. c #FCD31B",
" X c #FCD518",
".X c #F6C421",
"XX c #FAC522",
"oX c #FBCC24",
"OX c #FACD2B",
"+X c #F7CA28",
"@X c #FBD323",
"#X c #FDDB23",
"$X c #FBD42C",
"%X c #FCDC2B",
"&X c #F4C833",
"*X c #FDDD33",
"=X c #F9D63C",
"-X c #FBDB3C",
";X c #FAD433",
":X c #FEE325",
">X c #FEE52B",
",X c #FEEA2D",
"<X c #FDE334",
"1X c #FEEC33",
"2X c #FDE43B",
"3X c #FEEB3C",
"4X c #FFF136",
"5X c #FEF13B",
"6X c #FDDF45",
"7X c #FEED43",
"8X c #FDE54B",
"9X c #FEEA4C",
"0X c #FDE142",
"qX c #FEF244",
"wX c #FEF44B",
"eX c #FFF84D",
"rX c #FEEA54",
"tX c #FDEF58",
"yX c #FEF553",
"uX c #FFF853",
"iX c #FEF35A",
"pX c #FFF85C",
"aX c #FEF562",
"sX c #FFF963",
"dX c #FEFA6C",
"fX c #FEF368",
"gX c #FFFB72",
/* pixels */
"O $ $ @ $ $ # # # ; # # : ; : 1 1 1 1 4 4 5 5 6 6 6 l l l z k z z l z k z l k k l z l l l k l k y 6 6 4 4 1 1 1 < ; ; # # $ $ $ ",
"; ; ; : < 1 : : 1 : 5 6 k y k k y k k k k l k k c c A A ` ` ` ` ` ` *.` ` ` ` G ` ` G A G G G A S Z z k k 6 y 6 5 4 1 1 ; $ ; 4 ",
"; 1 : : 1 < 1 1 1 1 5 6 6 y k k k k k k k l l z Z Z G G *.*.*.=.;.=.=.*.{ _ D A _ G D D A D D A Z Z l k y 6 5 4 5 4 1 1 ; $ # < ",
"; ; 1 1 1 : 1 4 4 4 5 5 6 6 6 k k k k k k l z c Z Z G ` *.*.;.$.1.1.:.<.$.} D G D D D A Z Z Z Z z z l k y 6 5 6 5 5 4 1 1 # # # ",
"4 4 6 6 6 k k k k k k k k z z c Z A Z Z c z Z Z A G ` =.;.:.j.x.~.~.~.~.x.k.%.%.:.;.;.} *.` *.` G D A Z c z z z l k k k 6 , 1 , ",
"6 6 6 6 y k k k k z k k k z z c Z Z z z l k c Z Z A *.:.&.j.c.+X=X=X=X=X$X.XY.P.x.x.j.e.&.:.;.=.=.*._ A Z Z Z z z k k k 6 6 4 4 ",
"5 6 4 5 5 4 4 6 6 6 6 6 y y k y k l k k k k l c Z ` =.&.p.U.oX2XwXqXqX7X3X<X%X@XoXE.P.s.y.$.:.;.*._ D A Z Z z k y y y y 6 6 1 1 ",
"6 y 6 y k 6 6 y y k k z z z m Z Z A A Z G ` *.,.;.3.l.c.W.oX$X<X<X5X5X5X4X5X<X1X,X:X'.H.n.f.0.O.} ` *._ A Z Z m z z z z z k 6 6 ",
"m Z Z A A S D A A _ *.*.=.;.:.;.:.3.3.2.5.5.!.!.Q.c.I..X$X@X{.{.[.>X1X1X,X4X1X,X>X>X X X].'.Y.x.q.$.<.;.=.=.} { { _ *.{ D D Z m ",
"t y y y i l i l x l l l m N S S ^ / / / =.-.,.,.r.L..X%X<X{.H.Z.C.[.1X1X,X,X>X:X|. X|. X#X:X@X[.x.%.T S m n l l l l l l i y y t ",
"< < : 4 3 3 , 4 5 5 t y y y i l m m Z Z S G / -.r./.*X7X$XH.h.h.h.E.<X4X,X4X>X'.F.H.K.].#X>X,X%XW.g...F p , : , 5 5 5 5 4 4 4 3 ",
"6 6 y k k k y k l l l z z m Z Z G *.;.:.<.3.3.z.I.*X7XwX;XB.M.B.Z..X1X1X1X4X#XD.B.N.M.D.R.#X>X,X#X[.f.q.' l t k l z z l l z l k ",
"6 6 k k k k k l z z Z Z G G G G *.=.<.1.1.2.j.L.OXqXyXwX-X{.'.{.}.*X5X1X1X1X{.N.h.h.M.M.Z.R.#X>X:X|.[.A.q.T l z z z l l z k k y ",
"6 6 6 6 y k z c Z Z A ` =.;.:.:.<.3.3.3.2.j.v.+X7XiXpXyXqX2X2X<X2XwXqX5X1X%XR.h.h.h.h.h.h.V.}.:X:X:X#X|.Y.o.V m k k k k y 6 6 5 ",
"y y 6 y y l z Z c Z A *.=.:.1.2.5.l.l.l.k.c.E.-XyXsXsXpXuXeXeXwXwXuXwX5X1X#XC.h.M.N.N.h.h.N.'.#X:X:X:X:X}.P.8.) c k k k k k k y ",
"l k k z z c A Z A D *.*.;.:.1.2.l.l.z.c.I..X*XqXpXuXyXpXuXuXuXeXwXyXeX5X1X%XR.B.N.N.M.h.h.H.}.:X:X:X,X,X:X|.A.q.D z z c k k l z ",
"z z z c c z A G _ *.:.:.1.1.3.2.5.l.z.I.$X3X5XwXqX2X<X7XqXwXqXqX5XwXwXwX5X7XOXH.V.N.N.N.N.'.#X,X,X,X,X,X:X:X XP...m z z l l l k ",
"k k k z l z c Z A G ;.;.;.;.;.:.5.z.L.oX3XwXwX7X$X}.|.|.,X3X4X4X5XqXqXwXeXwX2XoXK.V.H.V.H.#X,X1X1X,X,X:X:X:X|.J.@.D S Z Z Z Z z ",
"l l z c Z Z A G G ` *.;.:.<.<.3.z.I.OX<XqXyX7X$XR.H.V.H.@X1X>X4X5X5X3XqXuXwXqX>XoX'.R.W.oX>X5X1X1X1X,X:X|. X}.T.8.V D A Z A _ Z ",
"D ` ` *.*.*.;.:.:.:.3.r.!.Q.Q.Q.L.{.2XqXqXqX3XoXV.N.N.V.'.>X,X,X1X1X1X3X3X3X3X3X3X0X6X0X*X3X5X3X<X%X%X`.J.G.C.b.#.P T D A { { { ",
"t t t i i i i n n n H ! ! ) ) q.f.{.<X5X5X3X<X}.N.N.N.H.|.,X,X,X>X#X|.}.}.oX%X7XtXaXiXyX7X3X2X$X.X{.W.B.s.s.s.u.+.v t t t t t t ",
"3 6 6 6 y i l l z z Z S G T -.e.M.H.|.1X4X1X>X}.H.V.V.}.:X4X,X>X#XR.C.B.B.V.H.*XiXaXtX7X*XOX{.T.f.g.s.i.y.y.y.y.+.v 4 < < < < < ",
"l k z z A D *.=.*.;.<.<.2.k.k.f.M.D.'.<X5X1X1X%XoXR.'.%X4X4X4X>XW.a.u.a.s.s.B.oX8X9X-XoXW.C.d.u.y.#.@.#.#.#.#.#.+.F y 6 4 y p y ",
"k l l l z A G G *.*.;.2.k.n.M.N.H.'.|.3XqX5X1X5X3X%X:X1X4X4X1X>Xg.9.#.u.p.a.N.oX2X;XR.H.B.d.u.@.[ [ ] X.#.y.y.#.+.C z k k k k z ",
"Z A S A A *.*.;.;.:.2.v.U.R.`.{.$X*X0XwXwXqX5X5X5X5X4X4X4X,X:X|.a.@.#.9.9.g.R.#X$X}.V.M.h.i.#.[ ' ' P ' @.i.y.4.+.C z y y y y y ",
"z Z Z Z S D _ *.} <.g.T.@X#X>X<X7XwXuXpXiXyXqX5X4X5X1X4X:X:X X_.a.9.9.9.u.b.}.|. XK.M.d.i.#.[ ' ' ' C P +.y.y.#.+.C z k k k k y ",
"z Z Z Z Z D { } $.v.W.;X7XwXyXiXpXiXsXdXdXaXyX3X1X>X>X#X X_._.(.b.d.a.a.b.H.'.]._.F.M.a.@.] [ X.+.+.' P +.i.y.@.] V z z z k l k ",
"m Z A D D { =.$.j.I.-X9XpXsXdXdXdXiXiXdXdX8X0X*X}.}. X].(.F.(.F.F.D.D.S.F.].).F.(.D.M.y.[ [ +.y.u.y.+.' +.i.y.+.' F z z k k y y ",
"z z Z A A D | j.I.=XrXiXsXdXgXgXdX9X-X=X=XXX{.R.D.F.F.F.D.D.D.D.F.F.(._._._.).D.F.D.M.9.+.+.4.s.h.a.@.] #.i.y.+.] V Z z l k k 6 ",
"k z z z m D r.^.;XtXdXdXdXdXaXrX8X;XR.H.H.D.V.V.V.V.V.B.D.D.D.D.D.D.K._.(.(.F.D.V.V.M.y.#.@.i.s.s.s.y.@.4.i.y.#.[ V Z z k k l k ",
"z m z z m :.E.0XyXdXdXdXaXiX6XOX{.R.D.N.N.N.V.N.V.M.d.s.M.M.V.V.V.D.D.F.F.D.V.V.N.V.N.s.y.y.i.s.s.h.d.s.i.y.y.#.[ V z k y y k k ",
"Z A D G D q.&XiXaXaXrX8X=X$X{.H.V.V.B.M.M.M.N.h.s.9.@.+.8.a.B.V.V.V.D.D.V.V.N.M.h.M.M.N.M.s.s.h.N.B.D.V.s.y.y.#.[ V Z Z z k k k ",
"Z D _ { } q.&X8X9X0X$X{.K.H.D.V.V.M.M.M.M.M.d.9.@.[ ] ' [ 9.M.D.V.V.V.N.V.M.d.h.d.h.M.V.D.V.V.V.V.V.V.M.i.i.y.#.] F D D Z c z z ",
"l x z l Z O.P.XXoXoXK.F.V.V.N.V.M.M.M.M.M.h.0.[ ' ] [ ' ] #.M.D.V.M.M.h.h.u.9.u.i.h.M.V.V.D.D.V.V.N.h.i.i.i.4.+.C x x x y t 6 4 ",
"6 t t y i U d.S.D.'.K.D.V.V.N.M.M.h.M.M.M.s.+.P P ] X.X.+.y.V.F.D.M.h.h.i.+.X.+.#.s.M.N.V.N.V.V.N.h.s.i.y.y.4.[ v 8 4 , : : ; ; ",
"k z Z Z Z ] d.V.V.F.).D.V.N.M.h.h.h.h.M.M.u.[ C ' [ @.@.9.b.(.F.D.M.h.i.+.[ ' [ +.y.h.N.N.M.M.M.M.h.i.y.y.y.4.X.v > t y y 6 6 5 ",
"y z c Z A [ d.V.V.K.).K.V.M.h.h.h.h.h.M.M.a.@.[ X.@.9.y.a.`._.F.V.h.u.#.[ ] [ [ [ 9.h.V.N.M.M.M.h.i.y.y.y.y.y.+.V 7 t y y 6 y y ",
"k Z A Z D ] d.B.V.F.K.V.V.N.h.h.h.h.h.h.M.d.s.u.9.u.a.d.Z._._.D.V.s.@.X.] [ #.@.X.9.M.V.M.h.h.h.i.i.4.y.y.y.#.[ b q u k i k z l ",
"k l l l l ' a.B.V.D.D.V.V.V.N.h.d.u.y.s.M.M.M.M.d.M.M.J.K.`.D.V.V.a.[ ] ' @.y.y.y.a.V.V.h.s.s.i.y.y.4.#.#.#.[ V p 8 q q t t 6 y ",
"y l k k l Z +.s.h.M.V.V.D.V.N.h.s.9.@.u.M.D.V.V.B.D.F.).(.D.M.M.V.a.+.] X.4.i.s.a.d.F.V.a.i.i.y.y.@.@.] C C v r > > > > , 6 y y ",
"y l k k z z V X.0.a.M.V.D.D.V.h.s.u.8.a.B.D.D.D.D.F.F.(.K.V.M.V.V.d.@.X.X.9.a.M.B.D.F.B.s.i.u.9.X.] b s 8 r 8 > 7 > 4 t y l l l ",
"z z c Z D A n P X.#.a.B.D.D.V.M.h.d.a.b.F.F.D.D.D.D.D.V.V.V.V.V.V.M.a.#.@.a.b.D.F.S.w.w.6.@...U b s r 9 7 8 8 e i i l l m Z m m ",
"z Z Z A D D v P o.0.d.D.F.D.V.V.B.S.J.`.(.F.V.V.B.M.M.d.s.M.M.V.V.B.M.s.a.a.S.S.m.7.I J h h f s e r d f u i f f m S m Z Z Z z l ",
"k l l z Z / R q.0.b.J.(.F.D.D.D.D.F._._.(.D.M.h.s.u.o...U 8.a.M.V.B.M.b.a.w.w.7.W J a - 9 e d d d n N N N m m m m Z Z z l l l y ",
"z m m Z S O.t.Y.A.`.]._.(.F.F.D.D.D.K.).D.B.M.s.u.] s 9 7 s W a.d.w.0.7.W I L L L J K j K ~ ! ! W W ) ) R T T Z m Z Z z k k k t ",
"+ @ # # < W Y.}.]. X X).F.F.F.D.V.D.B.M.h.a.a.9.@.B % X X % a U W L L g a 9 w - 9 0 e e a e h I 7.7.W s 8 * * # & & @ @ + + + + ",
"* ; ; : : E J.].]. X].F.D.D.D.V.M.d.a.a.8...] U Y e - - - = 9 h h s h h g J J L L N Y Y ^ Y E t.A.A.w.U n 6 6 < , t 4 2 : ; ; ; ",
"4 4 4 4 t ..S.`.F._.F.V.M.N.B.d.i.8.@...B r r s d a g K K K ~ ! ! Q Q ) E | >.>.,.%.,.%.-.>.8.S.(.`.C.%.S Z Z t m A Z l k 6 6 4 ",
"6 6 t y t [ M.D.F.F.b.h.i.a.u.8.U b B s 9 - 9 r f M ^ ( ( ) ( ( ( / / -.;.| O.O.%.O.;.=.=.R 0.S.F.F.d...S D { y m D Z z k l z k ",
"y y 6 k k U s.B.D.B.u.9.@...U B r 8 8 8 q 0 u n N S / >.;.>.>.-.;.;.;.<.1.%.t.m.w.%.} } =.T 8.d.b.d.9.U m D D t z Z z y k k z z ",
"k k y 6 x P 8.0.0.8...P V r e 8 w q u f f N ^ / | ;.<.<.<.<.<.<.<.1.1.1.1.q.A.`.G.q.| *.=.T | o.%.o.U b z Z Z 4 k z x k y y 6 6 ",
"k k 6 k y z P b L B r r 8 7 8 0 u f N R | -.;.<.1.1.2.2.<.<.<.=.=.:.:.1.%.q.m.A.m.o.T =.;.=./ C S b m Z Z Z Z , k z z c k k y 6 ",
"k k 6 k y k x p r t 3 r r i n v N / -.=.;.1.1.1.2.1.2.2.1.<.:.{ *.<.<.<.:.O.6.q.6.E =.<.2.<.} _ D S Z A A D A t l Z Z Z Z z z z ",
"k k k z z z z z l n m N A T { =.:.<.1.1.2.l.l.5.l.r.l.l.2.1.1.=.*.;.;.;.:.} ' | -.-.<.2.2.<.:.{ T A D D A A A , y c z z z l z l ",
"c z k z Z A Z Z Z A A D { =.=.;.<.1.2.5.5.5.3.5.l.l.5.5.2.2.<.;.=.;.;.;.;.;.=.=.;.:.<.<.<.:.;.*._ D D D A D _ 4 y m z k y 6 6 6 ",
"z z z z c Z c c z Z c Z Z S A A { { =.;.:.:.;.=.;.;.:.:.;.;.;.=.} ;.;.=.;.;.:.;.;.;.;.=.;.;.=.=.*._ _ _ { { { 4 y Z z k k y t 6 ",
"1 2 1 1 3 3 1 4 3 5 3 t 5 3 t t y y i i n l i i i f l l f l n x x l i n n l n l n n x n i i n i y i i t u y y * ; , 3 < < < * ; ",
"o o + o o o @ O + + @ @ @ & & # * * * & * * * * * * * ; * * * < > * < 2 q q q < > > 2 < * < * ; * * * * @ @ + o o o o o o o o o ",
"3 1 1 1 3 4 5 , 5 6 y l k k i k k l k k l l l z z m Z m z m Z D S S G *.=.=./ G { { _ D T D S Z z l z Z y 6 4 : 2 3 3 1 , : < < ",
": 1 4 : 1 : : : : 1 4 6 y t 6 y y 6 y 6 y y y y y l k k y z z Z z z z Z T T A S _ D D A S Z m m l y z k 6 4 4 ; 1 3 5 4 4 , , : ",
"# ; : ; # # ; ; ; ; : : 1 1 4 4 4 5 4 4 4 4 5 5 6 t y 6 5 k k k y y 6 k m c z z z l k k k k y t 6 4 4 , ; ; # # # # # ; ; ; ; ; ",
"O # # @ $ $ # @ @ # # ; ; ; ; ; : : : 1 1 1 1 5 4 5 4 4 1 4 t 4 4 4 3 4 y y 6 t k t 6 6 4 4 4 : : < ; ; # # # # # # # $ # $ # # ",
"o O o O O O O O o o O + @ @ $ @ $ # # # ; ; < < : : : : : : : : ; ; ; : 1 : : : , 4 1 : : ; ; ; * @ @ + $ @ O O $ O O O O o o o ",
". . . . . . . . . . . . . . . o o o o o o o O O + $ + O O O + O O O O O + $ @ $ @ $ $ O $ O o o o o . . . .   . . .             "
};
