/* XPM */
static char *result[] = {
/* columns rows colors chars-per-pixel */
"64 64 222 2 ",
"   c #030100",
".  c #0A0502",
"X  c #0F0803",
"o  c #130A04",
"O  c #190E06",
"+  c #1D1209",
"@  c #1E1107",
"#  c #221409",
"$  c #2C1A0C",
"%  c #321E0E",
"&  c #331F10",
"*  c #36210F",
"=  c #3C2512",
"-  c #352112",
";  c #571B02",
":  c #5B1D02",
">  c #442A14",
",  c #482D16",
"<  c #4C331D",
"1  c #4F3016",
"2  c #533317",
"3  c #52341B",
"4  c #5C391A",
"5  c #593618",
"6  c #5E2103",
"7  c #652403",
"8  c #6B2502",
"9  c #6D2905",
"0  c #722A05",
"q  c #7A2E05",
"w  c #7C3206",
"e  c #7C360C",
"r  c #77330A",
"t  c #633D1C",
"y  c #6C3B16",
"u  c #773B12",
"i  c #5A3C22",
"p  c #563A21",
"a  c #613F23",
"s  c #6C441E",
"d  c #66401D",
"f  c #76481E",
"g  c #644224",
"h  c #654529",
"j  c #694628",
"k  c #6D492B",
"l  c #6C4524",
"z  c #734A25",
"x  c #744C2B",
"c  c #7A4E25",
"v  c #7D5125",
"b  c #7C532B",
"n  c #75502F",
"m  c #765131",
"M  c #7B5532",
"N  c #7F5937",
"B  c #724F30",
"V  c #843306",
"C  c #893607",
"Z  c #8D3907",
"A  c #843608",
"S  c #8A3608",
"D  c #82380C",
"F  c #8C3A09",
"G  c #913B07",
"H  c #943C09",
"J  c #993E09",
"K  c #8D420C",
"L  c #94430B",
"P  c #9C4209",
"I  c #9D4A0C",
"U  c #96480C",
"Y  c #844516",
"T  c #96551B",
"R  c #935118",
"E  c #A2460A",
"W  c #A44A0B",
"Q  c #AB4C0B",
"!  c #A4510D",
"~  c #AE510D",
"^  c #B3530C",
"/  c #B9570D",
"(  c #B5590F",
")  c #BC5B0E",
"_  c #A44E13",
"`  c #A95816",
"'  c #B25C14",
"]  c #BD5D10",
"[  c #B45E1A",
"{  c #B14F0C",
"}  c #AB641C",
"|  c #BC6313",
" . c #BC6A1B",
".. c #B76519",
"X. c #BF721E",
"o. c #8A5D2B",
"O. c #845829",
"+. c #975B29",
"@. c #845B35",
"#. c #855E39",
"$. c #8B5F35",
"%. c #A45922",
"&. c #8E622B",
"*. c #98662C",
"=. c #8E6136",
"-. c #8C633D",
";. c #83603C",
":. c #936535",
">. c #93663B",
",. c #9D6E3C",
"<. c #986939",
"1. c #9F7034",
"2. c #AA6827",
"3. c #B76828",
"4. c #A8722E",
"5. c #B77329",
"6. c #A77439",
"7. c #B87639",
"8. c #AD6D34",
"9. c #C05E0E",
"0. c #C15F10",
"q. c #C3610F",
"w. c #C9650F",
"e. c #C46311",
"r. c #C96611",
"t. c #C36B17",
"y. c #CD6A12",
"u. c #C66C1B",
"i. c #D16E13",
"p. c #C4731D",
"a. c #CA791D",
"s. c #D57214",
"d. c #D97615",
"f. c #DB7A16",
"g. c #DC7C19",
"h. c #D5791B",
"j. c #E07F18",
"k. c #CB7B22",
"l. c #C67725",
"z. c #D57D24",
"x. c #C47A36",
"c. c #CA7628",
"v. c #8F6942",
"b. c #956B43",
"n. c #996D43",
"m. c #9C7146",
"M. c #9D7349",
"N. c #967149",
"B. c #A37444",
"V. c #AB7C46",
"C. c #A3794D",
"Z. c #AB7E4C",
"A. c #A2774A",
"S. c #B77D44",
"D. c #A57E53",
"F. c #A87D50",
"G. c #C27E42",
"H. c #B9833D",
"J. c #DD811B",
"K. c #D5811E",
"L. c #E2821A",
"P. c #E6891F",
"I. c #CE8B2A",
"U. c #C9822E",
"Y. c #D98631",
"T. c #D58930",
"R. c #D18330",
"E. c #E58C22",
"W. c #EB9726",
"Q. c #EF9C2A",
"!. c #F7B638",
"~. c #F1A833",
"^. c #AE804C",
"/. c #B3834E",
"(. c #B88349",
"). c #AD8254",
"_. c #AB855A",
"`. c #B38654",
"'. c #B68956",
"]. c #B58B5C",
"[. c #BA8E5B",
"{. c #BD8E55",
"}. c #BD915D",
"|. c #BF9056",
" X c #BB9364",
".X c #B79163",
"XX c #B78E61",
"oX c #C88847",
"OX c #D48F43",
"+X c #D88F42",
"@X c #CD924C",
"#X c #C2935E",
"$X c #CB9558",
"%X c #D39C5C",
"&X c #D19753",
"*X c #D39049",
"=X c #E09C4C",
"-X c #D9A55C",
";X c #EAAA4E",
":X c #C39662",
">X c #CC9D64",
",X c #C89E6A",
"<X c #C49A67",
"1X c #D19C61",
"2X c #CBA16C",
"3X c #D5A264",
"4X c #D3A46B",
"5X c #DAA967",
"6X c #CEA571",
"7X c #CAA575",
"8X c #D3A974",
"9X c #D4AC78",
"0X c #D9AD76",
"qX c #DBB27C",
"wX c #DBB17A",
"eX c #E3AD63",
"rX c #E1B67B",
"tX c #DCB681",
"yX c #DEB983",
"uX c #D5B281",
"iX c #E0BA84",
"pX c #E2BE8A",
/* pixels */
"8 0 0 9 0 0 q q q q q V V V V S S S S S G J G J J J W Q W Q W Q W Q Q W Q W E E Q W W W W W W W J J J J G S S S A V V q q 0 0 0 ",
"V V V S V S S S S S H J P E E E E E E E E W W E { { / / 9.0.0.0.0.0.e.0.0.0.) 9.0.0.0.) ) / ) ) ) { Q E E J J J H G F S V 0 V S ",
"V S S S S A S S S S H J J E E E E E E E E W W Q ^ / / 9.0.r.r.r.r.r.r.0.0.0.0./ 9.] ) ) ) ) ) / ^ ^ W E E J G G H G S S V 0 q S ",
"V V S S S S F G G G H H J J J E E E E W E W Q Q ^ ^ ) 0.e.e.r.r.i.r.r.0.0.0./ ^ / / ) ) ^ ^ ^ ^ Q Q W E J J J J H H G S S q q q ",
"G G J J J P E E E E E E E E { ^ ^ / { ^ Q Q ^ ^ / ) e.r.r.r.i.i.y.i.i.y.i.i.r.r.r.e.y.e.q.q.q.] 9.) / ^ { Q Q Q E E E E J F S F ",
"J J J P P E E E E W W E E Q Q Q ^ ^ Q Q Q W Q / / / e.y.i.s.d.s.i.s.s.d.j.j.j.d.d.f.s.s.s.i.y.y.r.e.9.) ^ ^ ^ Q Q E E E P H F G ",
"H H G H H G G J J J J J P J E E E W W W E E Q ~ ^ 0.r.i.f.j.L.j.d.j.j.d.d.d.d.d.s.s.s.y.y.y.y.w.e.9.) / ^ Q Q W P P P P P J F S ",
"J P J E E J J P P E E Q Q ^ Q ^ ^ ^ / ) ) ) t.y.y.d.f.E.W.Q.Q.Q.E.W.E.E.E.L.E.E.L.f.g.f.s.y.y.y.r.q.q.9./ / / Q Q Q Q Q Q E J J ",
"^ ^ ^ / / ) ) ) ) 9.q.q.y.y.i.y.i.h.g.J.J.L.E.E.W.Q.Q.!.!.!.;X!.!.!.!.!.!.Q.~.Q.Q.W.W.P.L.J.f.d.s.i.i.i.r.r.r.w.e.0.e.q.) / ^ Q ",
"H L P E E I I W W W W Q ~ ' ' ( | | | | e.t.p.p.a.a.a.I.I.I.I.I.T.I.I.I.I.k.a.K.K.X.X.| | | | ( ( ' ( Q W W W W W W W W I I I P ",
"A A C Z Z Z Z G F G L P P P I W ~ ~ ~ ( / | | | t.t.t.t.p.p.X.p.p.p.p.p.p.t.t.t. .( ^ ~ ! ! W W W I I I L F S G H H H H G G G Z ",
"J J E E P E P E W W W Q Q ~ ^ ^ ) e.y.i.s.d.h.J.L.L.f.K.K.U.l.K.U.l.l.l.l.a.k.a.K.K.w.w.q.] ] ) / / / ^ ^ I J E W Q Q W W Q W W ",
"J P E P E E E Q Q Q Q ^ / ) ) q.q.y.s.s.d.d.f.J.J.g.h.l.l.8.8.H.6.6.6.4.4.4.5.2.X.X.p.t.w.w.e.q.) q.) q.9.W J W W Q W W Q Q P P ",
"J J P J P E W { ^ ^ ) q.w.s.s.y.s.d.d.f.d.d.g.K.a.5.5.H.^.C.^. X<X}.'.'.'.`.B.:.*.*.2.}  .y.i.y.w.e.w.q.0.Q J E W E E E P J J H ",
"P J J P E W Q ^ ^ ^ ) q.r.s.s.f.L.L.J.J.J.s.p.X.5.6.^.[. X.X XuXqX9X6X6X6X,X`.N.,.N.,.1.} ..t.r.e.e.e.) 9.E J Q E W E E E E E P ",
"E W W Q Q Q / ^ / ) q.q.y.s.s.f.L.L.L.P.J.p.2.4.C.[.2X9XuX X X7X7X2X2X2X2X X].).<X,X X`.,.&.T ' e.e.e.9./ E E { Q Q Q { E E W Q ",
"Q Q Q { { Q ) ) ] w.s.d.d.d.f.f.J.L.g.h.l.4.*.A.].2X7X,X<X_.D.XXXX`._.].XX_._._.7X9X6X,X].b.O.R } | q.) / W P ^ Q Q W W W W W W ",
"E E W W W Q { ^ ( ) w.w.i.w.w.y.d.f.h. .2.,.D._..X2X X`.Z.b.#.;.-.v.v.v.v.;.v.D.XX,X9X6X<XD.N O.T ` ( q.q.~ E / / / / ^ ^ ^ / Q ",
"Q Q Q { ^ ^ / ) ) | w.w.y.s.s.K.J.K.k.*.6.). X_.D.M.M.M.>.m i p < < < < < < h v.M.F.[.XX`.N.v.#.&.T ! t.w./ Q ] q.] ] / ^ ^ ) / ",
"/ 9.9.q.e.e.y.i.i.s.d.J.E.W.W.Q.W.U.H.,.Z.[.#XF.b.#.m B h < - # # + + + + + - < h #.b.n.N.N.F.C.-.O.R p.K.r.^ s.w.q.q.) / q.w.q.",
"L L P I I I W ! ! ! ! } } .. .} } o.=.A._.'.`.A.#.h 3 , & # o               X o $ , k M -.N..X XN.n y Y T U F U U U L L K L U K ",
"F H J J P I W W W ~ ~ ) ) ) ] | ` o.,.'.[.`.M.-.k = $ # o .                     X + = i #.C.D.F.m.M l y u F F Z C C C A C V C V ",
"W W Q Q ( ) e.e.q.y.i.s.f.J.J.a.} :.B.[.'.D.v.j , # o X                             o = k M.M.M.m.;.x t Y W Q W I P J G G P P P ",
"E W W W Q ) ) e.w.w.y.i.f.J.J.} Y #.b.F.).M.m , $ o .   . . . .                       # , N v.b.m.>.M a f U ~ ^ { W E E W E E Q ",
"^ ) / ^ ) ] q.w.y.y.s.f.J.L.K.X.=.M.C.A.b.M < & o . . . . . . . . .                   X % i m v.-.#.M j y e W W Q Q W E J P P E ",
"Q ^ / / / ] q.w.e.y.s.d.J.J. .2.n.).`.C.#.a = # o X o X o X o . . .                     O = i B @.-.#.B l y L W Q W W W E E E J ",
"W ^ ~ ^ ^ ) q.w.e.s.s.f.f.f.} 1.A.`.[.].#.p - + o O O O O O o X . .                     X + > h #.M.M.#.k y K I W E Q Q Q W E E ",
"^ ^ / ) ] q.q.y.y.s.d.f.J.h.T &.M.).'.).M < - # O # + + @ @ O O o .                     . o > k b.A.M.#.j t e I Q Q Q W E P E P ",
"Q Q / / / / / q.w.y.s.g.g.p.R M b.C.F.M.j , & # # $ $ $ % $ @ O o . .     .   .   . .   X o , m m.M.n.#.j 4 y U / { Q Q W E E J ",
"E W Q Q Q Q ^ ) q.y.i.J.J.X.f k #.n.n.>.a = # # # = * > > % # O X . X X X X X X X o X o o o = k n.n.v.#.j 5 y U ) ^ ^ Q E E W W ",
"Q Q Q Q ~ ~ / ] e.r.s.g.h...f h m ;.#.M < - # # - , , > > % $ O X o o O + O O O O O O O O + = i v.v.#.@.j 2 5 K ( ~ Q Q P J P E ",
"/ / ) 9.) ] w.y.s.i.s.L.h.2.v k #.#.N k 3 - $ % > 5 2 > % $ $ @ O # # $ $ $ # $ $ $ $ $ $ & > h v.b.#.#.k p 2 f ` [ / { Q E E E ",
"^ ) q.e.e.y.s.i.s.y.d.J.k.*.v M b.M.v.B 4 > % > 2 y t 1 % $ $ $ & = = = = = = = = > 1 2 2 5 t N D._.N.N.N h < f 2...r.] ( Q Q W ",
"E W W Q ~ ~ ^ ( ' | l.x.4.O.k M n.F.n.N g , % > 4 t t 1 % = > , 1 < 3 3 2 2 2 2 2 4 t d s O.v =._.XX_.M.#.h < z *.%.%._ _ I J G ",
"J P J P P P J T ` 3.7.S.,.b g k #.n.b.m a , % > 5 t 5 1 > 2 4 t a a l l t a t t 4 d s s v *.O.=.D.).M.N.m i > a @.+.+.%.%.R F D ",
"Q ~ ^ [ 3.3.3.3.l.x.S.V.>.k i g M #.#.m i , % > 1 2 2 5 t k x O.M b c z z l z c f s f v &.4.o.o.>.N.b.=.j < = < x >.6.7.7.8.2.%.",
"W ` 3.5.oXx.oXoX7.7.,.n.M g 4 g x M m k 3 > & = > 1 t k x @.=.=.-.$.O.O.O.O.b b v v v &.*.2.O.z N =.#.M g , - = p @.,.S.S.(.(.S.",
"_ 3.x.oX%X1X:X#X`.V.,.>.b y d l x @.m h 3 = & = 5 x O.@.$.$.:.<.>.>.#.$.$.$.$.@.=.&.o.1.4.*.z l #.-.=.M g , > , 4 x >.Z.`.:X1X1X",
"_ 3.7.oX1X8X6X>X:XZ.n.:.o.O.O.b x b k i 1 > > 4 z @.:.>.:.<.,.B.B.B.B.B.B.6.,.:.<.*.&.1.&.O.d a M #.#.z g t t d l O.>.Z.#X,X8X8X",
"_ ` 3.S.$X8XwX8X6X<X`.,.o.*.*.o.c a a 1 3 4 t b $.:.:.<.m.B.C.V.F.S.`.'.Z.Z.V.6.1.<.&.*.o.s t d z z k 4 l z o.o.o.=.B.`.<X4X8X1X",
"P _ %.7.G.%X>X8X9X,X:XZ.V.,.,.:.O.b z z O.o.o.$.:.,.,.B.V.V.Z.V.F.'.[.#X[.[.Z.S.F.V.6.,.:.o.o.&.&.v z k b &.*.6.V.Z.[.:X>X4X4X$X",
"Q ^ / 3.x.*X$X4X4X4X,X#X`.Z.B.B.n.b.$.>.,.4.1.,.B.V.Z.`.`.`.`.V.Z.#X:X:X,X1X:X#X:X#XS.V.B.,.6.4.4.&.=.=.<.6.V./.[.<X>X,X1X1X&XoX",
"W { / 3.c.x.S.$X%X3X8X6X<X:X[.:X:X#X`.Z.Z.V.Z./.[.<X:X#X#X:X:X#X#X2X9X8X8X8X4X1X-X$X@X[.'./.V.6.,.B.V.^.`.`.#X>X1X4X4X1X@XoX7.[ ",
"E Q Q ` [ 3.3.7.oX@X1X1X>X1X4X8X0X9X6X,X>X,X2X,X8X9X4X,X4X8X8X8X8XqXiXtXqX9X4X$X@X*XH.#X#X<X#X[.}.}.:X,X,X2X4X>X$XoXoXG.x.3.` _ ",
"Q ^ { ^ / u.R [ x.x.oX&X%X%X3XrXiXtXtXtXtXyXyXtXiXiXqXwXwXqXiXiXyXiXpXpXyX0X8X%X@X@XH.|.2X8X6X8X8X9X9XwX8X4X3XoXx.3.3.3.3.%.E J ",
"9 0 q 0 0 e 9 r u Y Y +.T %.V.'.,X6X9XiXpXpXtXtXqXtXqXtXiXyXqX9XtXtXiXpXpXpXtX8X>X>X:X2X9XyXtXtXtXtXwX6X:X`.,.R D u e u r r 9 0 ",
"q V V V D q V D D F F L I ` } 5.OXOX$X>X0X5X5X3X1X1X5X5XeX5XeXeXrXwXrXrXrXrX0X5X1X%X%X%X3X5X3X3X4X3X1X@XS.8.%.K R H H K F S V V ",
"G H G G G S S H J P J W ' ] e.u.k.k.z.T.OX&X&XOX*XW.~.~.~.;X;XeXeXeXeXeXeXeX-X=X=X=X=X+XOXOXOX+XOXOXOXx.u.3.] I ~ / { W I J H H ",
"J P J P J J E E W Q { { / w.y.i.d.d.g.g.K.z.z.z.J.E.E.E.P.E.K.Y.Y.Y.Y.Y.Y.Y.Y.z.z.h.k.c.k.u.k.p.l.k.k.u.e.e.q.I Q ) ^ Q E E Q E ",
"P P P P E E W Q Q ^ ^ ^ / 9.q.w.y.i.w.w.y.y.y.s.s.s.d.j.j.f.g.h.g.d.z.g.g.f.d.d.s.i.i.y.y.w.e.y.r.y.y.u.q.9.] L W / Q E E E Q Q ",
"E E P P E Q Q Q Q ^ ^ { ^ 9.9.q.w.w.w.y.y.y.s.s.d.d.d.f.d.d.d.d.d.d.f.d.d.d.d.d.s.s.i.r.r.e.q.w.e.e.e.9./ / / G I Q E E E P J J ",
"E E J P P E E W W { { Q ^ 9.9./ w.w.i.d.f.f.f.f.f.f.f.f.s.s.i.w.r.i.i.s.s.d.s.i.i.i.i.i.y.r.y.w.q.) ) / ^ ^ ^ Z E { Q Q E E P J ",
"E E J E J E W W E ^ ^ ^ / ) 9./ w.y.s.s.d.f.f.f.f.f.f.j.d.s.i.q.e.i.i.s.d.s.s.s.d.s.s.j.f.s.i.w.e.) ) ) / / ) G Q / ^ ^ ^ Q Q W ",
"W E E Q Q Q Q { ^ / / q.q.w.y.y.s.f.f.f.f.L.L.L.L.L.L.L.j.f.s.y.e.i.i.i.i.i.i.s.d.j.d.j.J.s.i.q.9.) / / / 9.) Z P Q Q Q W E W E ",
"Q Q W Q ^ ^ ^ / / / / 9.q.y.y.y.s.d.f.L.j.j.J.J.j.L.j.L.f.d.s.y.r.r.r.r.i.y.y.i.i.s.s.s.d.i.y.w.0.) / 9./ 9./ Z P ~ Q E P J P J ",
"{ Q W Q { ^ { ^ { ~ ^ ^ ^ / / / 9.w.w.y.y.y.y.w.i.i.i.i.y.i.y.w.y.r.i.r.w.y.y.i.y.y.y.i.w.y.y.w.e.9.9.9.q.w.9.J I { { E P P P J ",
"F F F F F F G S Z G J G F K L J P P I W W ! W I I W ! W W ! I W W I ! ! ! W ! W ! ! ! I ! ! ! I I I I P U P P w w G K C V V w V ",
"7 7 7 7 7 7 0 8 8 0 0 0 q 0 q 0 w q q q w w w w w w D w w w e A D D D F K K K D K F D A e e D e w w w w 0 0 9 7 7 7 7 7 7 7 7 7 ",
"S F S S S H G G G H P W E E E E W W W W W Q E Q Q ~ ~ Q Q ~ ^ ) ) ( ) q.w.w.q.) q.q.9.) ) ) / ^ Q W { ~ P J H S F F F F Z Z A A ",
"C S G S A S S V Z Z G L P P L P P J J J P P P P I W W W P Q { { Q W Q ( q.] / ) 9.9./ / / ^ ~ ~ W P W E P G F C Z Z F G G Z Z C ",
"q V C V q q V V V V A Z Z C G G G G G Z G J G J J J J P H E E W E P J W ~ ^ W Q Q W W E E E P P J G G G C V q q q q q V V V V V ",
"8 q q 0 0 8 q q 9 q w V V V V V S S S S S F Z G G J J G G G J J G G S J P P P P P P J J H G G S C V V V q q q q q q q 0 q 0 q q ",
"7 8 8 8 8 8 8 8 8 8 8 8 0 9 8 0 0 q q q V V V V A C S V V V S V V V V C A F C Z G Z S S S V V w w 0 8 9 0 8 9 9 8 8 8 8 8 7 6 8 ",
"; : : ; : : : : ; ; : : : : 6 7 7 7 7 7 7 7 8 8 0 0 0 8 8 8 9 8 8 8 8 8 8 0 0 8 0 0 0 8 8 8 7 7 7 7 : : : ; ; : : : ; ; ; ; ; ; "
};
