/* XPM */
static char *_ffbdcc12b6e48f4a1893a47884280denffkeNPaeuM25J2e[] = {
/* columns rows colors chars-per-pixel */
"64 43 164 2 ",
"   c None",
".  c #020100",
"X  c #0B0502",
"o  c #0F0904",
"O  c #130A04",
"+  c #1A0D06",
"@  c #1E1007",
"#  c #1E1108",
"$  c #25150A",
"%  c #29170B",
"&  c #2D1A0C",
"*  c #321D0E",
"=  c #2F1E11",
"-  c #311E10",
";  c #3B220D",
":  c #342113",
">  c #3C2514",
",  c #402716",
"<  c #452A14",
"1  c #4B2D15",
"2  c #442C1A",
"3  c #4A2D19",
"4  c #4C311C",
"5  c #533316",
"6  c #5C3817",
"7  c #53341D",
"8  c #5D3A1A",
"9  c #633E1C",
"0  c #563820",
"q  c #593A21",
"w  c #633F22",
"e  c #65421D",
"r  c #6A421C",
"t  c #6D491F",
"y  c #754A1E",
"u  c #5D4025",
"i  c #624125",
"p  c #6C4523",
"a  c #65452A",
"s  c #6B472A",
"d  c #67482C",
"f  c #6D4A2C",
"g  c #744B24",
"h  c #734D2C",
"j  c #794E2A",
"k  c #7B5227",
"l  c #73512A",
"z  c #7D532B",
"x  c #755333",
"c  c #7B5533",
"v  c #7E5936",
"b  c #7E5A38",
"n  c #8C5D27",
"m  c #8B5B2F",
"M  c #805734",
"N  c #815A37",
"B  c #8B5D33",
"V  c #805C3A",
"C  c #885E39",
"Z  c #8B6026",
"A  c #8E612D",
"S  c #986626",
"D  c #96662A",
"F  c #91682E",
"G  c #9D6F2E",
"H  c #8E6032",
"J  c #86613D",
"K  c #8C633C",
"L  c #936335",
"P  c #9B6935",
"I  c #94653B",
"U  c #9B6C3C",
"Y  c #9E7330",
"T  c #AA7422",
"R  c #A7742D",
"E  c #AB7B2C",
"W  c #B0782D",
"Q  c #A17235",
"!  c #AD7E36",
"~  c #856340",
"^  c #936C44",
"/  c #9B6D43",
"(  c #9C7146",
")  c #95714A",
"_  c #9D7349",
"`  c #A47444",
"'  c #A77847",
"]  c #AA7943",
"[  c #A2754A",
"{  c #A6794B",
"}  c #AC7C4B",
"|  c #B07F4C",
" . c #A27E56",
".. c #A87F53",
"X. c #D39F3B",
"o. c #AF804E",
"O. c #B1824F",
"+. c #A68157",
"@. c #AE8355",
"#. c #AA865B",
"$. c #B58757",
"%. c #B28453",
"&. c #B78854",
"*. c #B98955",
"=. c #B0885A",
"-. c #B78C5C",
";. c #B78C58",
":. c #BA8C5B",
">. c #B98D5D",
",. c #BC8E59",
"<. c #BF905A",
"1. c #B69063",
"2. c #B29066",
"3. c #B69164",
"4. c #BF9362",
"5. c #BD9463",
"6. c #BF9665",
"7. c #B89468",
"8. c #C79756",
"9. c #CA9651",
"0. c #C1935E",
"q. c #D3A356",
"w. c #C49763",
"e. c #C09665",
"r. c #C29560",
"t. c #C69A67",
"y. c #C69B65",
"u. c #C99E66",
"i. c #C89C65",
"p. c #C99F6C",
"a. c #C89F6F",
"s. c #CDA065",
"d. c #CDA26E",
"f. c #CCA16E",
"g. c #CCA26C",
"h. c #D0A56F",
"j. c #C5A070",
"k. c #CBA372",
"l. c #CDA471",
"z. c #CEA572",
"x. c #CEA672",
"c. c #D1A772",
"v. c #D1A770",
"b. c #D4AB75",
"n. c #D5AE7C",
"m. c #D6AF7C",
"M. c #D7AF78",
"N. c #D8AF78",
"B. c #D8B07C",
"V. c #DBB47F",
"C. c #DAB27C",
"Z. c #D6B281",
"A. c #D9B482",
"S. c #DDB783",
"D. c #DCB682",
"F. c #DEB883",
"G. c #DDBA88",
"H. c #DFBB88",
"J. c #E1BB86",
"K. c #E2BE89",
"L. c #E5C28E",
"P. c #E6C491",
"I. c #E8C794",
"U. c #E9C996",
/* pixels */
"                                                                                                                                ",
"                                                                                                                                ",
"                                                                                                                                ",
"                                                                                                                                ",
"                                                                                                                                ",
"                                                                                                                                ",
"                                                                                                                                ",
"                                                                                                                                ",
"                                                                                                                                ",
"                                                                                                                                ",
"                                                            x b c x f                                                           ",
"                                                    i ^ #. .G.m.a.x.e.^ c f                                                     ",
"                                                > ~ 6.S.G.7.A.a.d.v.t.+.Z.x.{ a                                                 ",
"                                              a ) 2.B.>.} K _ [ [ ' / +.k.m.V.@.0                                               ",
"                                            i @.d.( ^ / I q : > - = : x _ %.$.^ / c                                             ",
"                                          4 _ -.%.[ w 4 = o . . . . . O : h b ) v.( 7                                           ",
"                                          b w.>.( f & X . . . . . . . . . O a @.[ _ f 4                                         ",
"                                        2 ~ } %.x % X . X . X . . . . . . . $ N / [ K q                                         ",
"                                        J 5./ x - O X O O X X X . . . . . . . , c c c d >                                       ",
"                                        [ :.4.a * O + @ + + O X . . . . . . . O 4 J =.K 7                                       ",
"                                      4 ( %.[ 7 - + % & & $ + X . . . . . . X X d [ [ N 7                                       ",
"                                      2 x ( K , # @ < < < % O X X O O o O O O X 2 ( K C 7 &                                     ",
"                                      u c c i : $ * 6 1 & & + + % % $ $ % $ $ * < K b c q >                                     ",
"                                    f a [ =.V 7 * 1 r 9 $ * > < 1 < 1 1 1 6 e t l 3.1...x 2 K                                   ",
"                                  u.b 7 c [ c 7 * 6 r 1 1 8 w p g p w p 9 r y G z @.} / q : J                                   ",
"                            g.:.` U w q f M s 3 & ; < 9 h B K B j j z j g g D R g b K x 7 & 3 I *.u.B.                          ",
"                        F.b.w.} I B r e h K s , % 1 z U B L U I I I I m P D ! D 5 K _ x 7 > 5 g ' ;.h.F.K.                      ",
"                        J.J.M.x.;.L D Y g i 3 < 9 B L L / ' } O.*.%.} ` P A F 9 5 p h 7 t Z n H o.d.B.J.                        ",
"                          J.F.V.u.%.` L B z z R S L ` ` | } } O.,.0.0.*.*.} U L E T p k G Q O.r.i.B.J.L.                        ",
"                            M.M.M.d.0.r.g.0.o.] } &.i.w.r.t.,.g.B.b.b.s.q.9.<.O.] U } %.O.w.v.M.B.S.                            ",
"                                b.L.K.L.L.S.A.F.F.S.K.b.B.S.F.S.L.A.M.8.X.W :.b.d.x.b.A.B.S.                                    ",
"                                        L.P.I.P.S.J.L.P.P.L.L.K.S.L.K.N.x.j.b.L.K.U.L.K.K.                                      ",
"                                              F.V.          J.K.P.L.J.J.  P.        B.                                          ",
"                                                                                                                                ",
"                                                                                                                                ",
"                                                                                                                                ",
"                                                                                                                                ",
"                                                                                                                                ",
"                                                                                                                                ",
"                                                                                                                                ",
"                                                                                                                                ",
"                                                                                                                                ",
"                                                                                                                                "
};
