/* XPM */
static char *ba152d89f1b94b239a2022077c685487fkkUTP10dceHMAY3[] = {
/* columns rows colors chars-per-pixel */
"64 61 184 2 ",
"   c #551B01",
".  c #5B1D02",
"X  c #5D2103",
"o  c #642403",
"O  c #6C2603",
"+  c #6C2A05",
"@  c #712705",
"#  c #732A04",
"$  c #7B2E05",
"%  c #743106",
"&  c #7D3206",
"*  c #7E3908",
"=  c #802F05",
"-  c #843306",
";  c #893606",
":  c #833907",
">  c #8C3906",
",  c #843508",
"<  c #8B3608",
"1  c #863A09",
"2  c #8D3A08",
"3  c #933C07",
"4  c #943C09",
"5  c #993E09",
"6  c #834109",
"7  c #8D420A",
"8  c #8F480C",
"9  c #984207",
"0  c #94430A",
"q  c #9C4209",
"w  c #944A0D",
"e  c #9C4B0C",
"r  c #97510F",
"t  c #99510F",
"y  c #965110",
"u  c #9C5411",
"i  c #9E5915",
"p  c #A2460A",
"a  c #A5490B",
"s  c #AB4C0B",
"d  c #B04F0C",
"f  c #A3510D",
"g  c #AE510C",
"h  c #AE590E",
"j  c #B2510D",
"k  c #B3530C",
"l  c #B5540E",
"z  c #B6550E",
"x  c #B9560D",
"c  c #B55A0E",
"v  c #BC5B0E",
"b  c #BC5A0F",
"n  c #A65511",
"m  c #AA5712",
"M  c #A25A15",
"N  c #AB5B14",
"B  c #B45C10",
"V  c #BD5B10",
"C  c #BF5D10",
"Z  c #BE620F",
"A  c #AD6215",
"S  c #AF6218",
"D  c #B76110",
"F  c #BB6311",
"G  c #B76916",
"H  c #B2651A",
"J  c #B46C1A",
"K  c #BF6C19",
"L  c #B7701C",
"P  c #BA741E",
"I  c #BE7822",
"U  c #C15E0E",
"Y  c #C15E10",
"T  c #C4620F",
"R  c #C9650F",
"E  c #CC690F",
"W  c #C36111",
"Q  c #C56211",
"!  c #C66412",
"~  c #C96612",
"^  c #C66B12",
"/  c #CD6A11",
"(  c #CC6913",
")  c #CF6B14",
"_  c #C16F1B",
"`  c #D16E12",
"'  c #D16E14",
"]  c #CD7313",
"[  c #C3731E",
"{  c #CB741A",
"}  c #CE7A1D",
"|  c #D37015",
" . c #D57314",
".. c #D97615",
"X. c #D47D16",
"o. c #DC7A16",
"O. c #D47618",
"+. c #D67819",
"@. c #DD7B18",
"#. c #DD7C19",
"$. c #E17E17",
"%. c #E07F19",
"&. c #C47520",
"*. c #C47C24",
"=. c #C87E26",
"-. c #D5841B",
";. c #DD811B",
":. c #D7881D",
">. c #DB8B1D",
",. c #E28117",
"<. c #E3841B",
"1. c #E6891D",
"2. c #EA8C1D",
"3. c #EC911F",
"4. c #C3832B",
"5. c #D28322",
"6. c #D78A27",
"7. c #DA8D20",
"8. c #C68A33",
"9. c #C58934",
"0. c #C68D3B",
"q. c #C98E3A",
"w. c #C8903E",
"e. c #E48720",
"r. c #E48B21",
"t. c #EA8E21",
"y. c #E39322",
"u. c #ED9323",
"i. c #E59925",
"p. c #EE9A26",
"a. c #EE9628",
"s. c #EE992A",
"d. c #F09624",
"f. c #F29A26",
"g. c #F29728",
"h. c #F39D2B",
"j. c #F89F28",
"k. c #E7A32E",
"l. c #EBA32C",
"z. c #F5A126",
"x. c #F5A22D",
"c. c #F9A42D",
"v. c #F3AA2D",
"b. c #F8A92E",
"n. c #EAAB33",
"m. c #E9AF38",
"M. c #F6A531",
"N. c #F8A632",
"B. c #F6AA34",
"V. c #F9AB34",
"C. c #F7AE3D",
"Z. c #FAAE39",
"A. c #EBB43C",
"S. c #F4B334",
"D. c #FBB236",
"F. c #FBB33C",
"G. c #F5BC3D",
"H. c #FCB93D",
"J. c #CA9342",
"K. c #ECBB44",
"L. c #ECBB49",
"P. c #F9B440",
"I. c #F5BE40",
"U. c #FDBB43",
"Y. c #EDC34E",
"T. c #F5C242",
"R. c #FEC345",
"E. c #FEC44B",
"W. c #FFCB4C",
"Q. c #ECC353",
"!. c #EDC759",
"~. c #FEC751",
"^. c #FECA54",
"/. c #FED354",
"(. c #FFD75A",
"). c #FFDA5B",
"_. c #EDCE66",
"`. c #EED067",
"'. c #FFDD61",
"]. c #FFDD68",
"[. c #FFE46B",
"{. c #FFE573",
"}. c #FFE974",
"|. c #FFE979",
/* pixels */
"O @ @ # # # $ $ $ $ $ $ - - - < < 2 < 2 3 4 5 5 5 q p a a a a a a a a a a a p p a a a p a p p p q 5 4 3 2 < < < , - - $ $ @ @ @ ",
"- - - < , ; < < < < 3 9 p p p p p p p p p a a a d z x v Y W Q ! ! ! ~ Q Q Q Y C W W Y C C C C v v z s a p q q 5 4 3 2 < $ @ , 3 ",
"- < < < < , < < < < 4 5 q q p p p p p p p a a s j x v Y Q Q ! ~ / ~ ! Y Y Y v x V C V v v v v x z j a p q 5 4 4 4 2 < < - # $ , ",
"- - < < < < 2 3 3 3 4 3 4 5 q p p p p p p a s s j z v Y Q ! ~ / / / ~ Y Y v x z x x x x z z z j s s a p q 5 4 5 4 4 3 2 < $ $ $ ",
"4 4 5 q q p p a a a a p a s j j x v z j d s j x v v Q / ~ / ' ' ) ' ' ' | | ' / / / ) / ~ ~ ~ Q Q U v x j j j s s a a p q 3 2 3 ",
"5 5 5 q q p p p p a a p a a s s j j s s a p s j j x W / | ..o... .....@.%.<.<.#.#.@... . .' / / ~ W U v j j j a a p p p q 4 2 2 ",
"4 3 2 3 3 < < 3 3 4 4 5 5 5 q q q p p p p a s d z Q ~ ..%.<.1.<.@.@.#......... .' ' ` / / ~ ~ ~ Q v v x j s s p q q q q q 5 2 < ",
"p p p a a a a a a s d j z v v v v W Q ! / ) O.+.#.<.r.s.x.x.B.M.l.x.x.s.p.p.u.u.2.1.<.%... .` ` / R R T v v v z z j j j d s p 9 ",
"z v v U U T T T T R R /  ..... .@.<.<.<.2.u.p.f.z.x.B.S.G.G.I.T.T.G.G.G.S.v.v.v.v.x.p.2.1.<.#....... .| / / / E E R R R T U v j ",
"$ & & , , , , 1 1 1 1 2 2 7 0 0 e e e e a n m m m N N H H H H H H H H H S N N N m n e e e w w w 0 0 7 2 1 , , , - , , - - - * & ",
"4 4 9 q q q q q p p a s s s j z v W ! / / | ..+.o.#.;.;.r.r.r.r.r.r.r.r.r.;.;.#.#.O.^ F v v c c z z j j a 0 3 q p a a a p p a p ",
"5 q p p p p p p a a a s d j j x v Q `  ...o.#.<.<.<.<.e.t.u.u.u.u.t.t.r.r.t.t.t.t.r.| / ~ W C v v v v v v a 9 s s s s s s s a p ",
"5 5 9 q q p a j d j v U Q / / / / | ........#.<.r.r.u.s.h.h.g.a.e.#.o.#.#.<.<.<.<.r.;.o...| ) / Q W T T U a 4 a a a p p p q 5 4 ",
"5 5 5 5 9 p s j d j v Q /  .....@.%.#.#.o...#.<.t.t.g.M.V.V.M.h.e.;.#.#.;.;.#.#.<.<.<.;.#... .' ! W Q U v a 4 a p p q q q q 9 5 ",
"p p p p a s j j j x v U Q / | o.<.<.<.1.t.t.t.g.h.h.x.M.V.V.N.B.V.V.B.x.x.x.x.j.h.p.1.#.o.| ' / ~ ! Q U v a q j s s s j a a s s ",
"s s s j j j v v U /  .....o.o.$.<.<.<.<.1.t.u.d.g.g.h.M.V.N.M.M.h.h.s.u.u.u.u.t.r.<.#.o.......| ` ~ W v x a q j s a a a p p p p ",
"p p p a a a d j x v ~ / / / / / ..@.@.%.1.d.x.N.V.D.H.U.U.U.U.F.V.h.g.g.g.g.a.u.u.u.<.<.<.#.....' ~ Q U U g q x x x x z j j j s ",
"p a a s s d j x x v T Q ~ ` '  .#.<.<.u.g.c.V.Z.F.U.R.E.E.E.E.E.U.V.N.N.x.x.j.g.f.a.t.1.<.<... .' / ~ Q ! z a v v v v z j z v z ",
"U T ~ ~ ~ ~ | ......o.<.u.f.x.x.c.V.H.E./.(.).).'.[.}.}.}.}.}.}.[.'.)./.W.R.R.R.D.D.D.V.b.x.f.p.u.2.2.1.1./ c ..` ~ Q U v R / Q ",
"0 0 0 e e e e f f f n A S J J J P I *.4.8.8.8.q.q.J.J.J.J.J.J.w.0.0.9.9.8.4.4.4.*.*.I P P L J J S A A N M w 1 e w 0 0 0 7 0 0 7 ",
"2 4 4 4 q e a a a s g c B B F F ^ ^ ^ { } } 5.5.5.5.6.6.6.5.} } } } } } } { { ^ ^ ^ F c j j h g a a a q 4 2 2 1 , , , , , - - , ",
"a a s d v U T ~ ~ / ` ..@.<.<.2.t.u.u.f.j.c.V.V.D.H.F.H.F.V.x.h.h.h.h.h.f.a.p.p.t.1.<...| ` / ! ! W T v v j g s p 9 4 4 4 9 9 9 ",
"p a p p s x v U T R / ` ..<.<.<.1.1.2.u.f.j.h.h.c.M.V.Z.Z.V.x.h.g.g.g.d.f.f.f.f.f.f.u.1.<.<.o...| / ! T v z z j j s a a a a a s ",
"z v v v v T ! / / / ..o.<.1.u.p.u.u.u.u.f.d.u.d.h.N.Z.F.U.U.F.D.V.N.M.c.x.c.x.h.g.d.t.1.<.#.o.<.o./ ~ Q v s s a s s a q 9 9 9 9 ",
"s j j j z v U Q Q ~ ` ..@.<.<.<.<.<.1.2.u.d.a.g.N.V.D.U.U.U.U.F.N.s.u.r.r.<.;.e.u.p.u.t.t.<.;.<.../ ~ W z s a a s a a a p p p q ",
"a j d j z v ! ~ / ` ....#.%.%.#.<.1.1.u.h.x.x.x.V.Z.F.U.U.U.F.D.B.h.s.s.t.r.r.<.2.t.1.1.1.<.#.<...| / / T v j s a p s g s a a a ",
"j z v U T ! ! / / | ..#.#.#.#.#.<.2.2.t.h.x.x.x.M.M.Z.U.E.U.F.Z.Z.V.V.x.g.u.u.t.t.1.#.........@.@... .| T v z j s s s a p 9 9 4 ",
"a s j j j j j v T ~ / #.<.1.t.2.1.1.t.t.u.d.g.g.h.h.Z.U.^.~.U.F.P.F.V.x.s.u.u.u.f.a.1.<.<.#...o.o... .| ~ v v U v x z s a p p p ",
"p a a a a a j v Q ~ ` <.2.t.u.p.d.d.f.f.f.j.x.V.U.R.E.~.^.~.P.B.F.D.V.x.g.a.a.p.d.p.t.2.2.1.<.<.<.,.@... ./ T ~ v z j s p p a a ",
"j z j j j z v T ~ /  .o.<.1.2.u.d.f.j.x.x.N.V.F.E.E.E.^.^.E.P.C.F.Z.V.M.h.g.d.u.u.t.1.1.2.1.1.1.1.1.<.$... .~ T z j s p q 9 9 q ",
"x v T Q ~ / |  ... ...1.f.j.j.c.V.D.H.H.U.R.R.R.(.'.{.|.|.}.{.{.].(.W.U.H.H.D.D.V.c.f.3.2.1.<.,.$.,.@.o. .` / ! v T Q v z s a a ",
"j c v v W ! / / / / ] ;.r.y.y.i.k.k.n.n.m.A.K.L.Q.!._._.`._._._.!.Y.K.A.A.n.n.n.l.l.i.y.y.>.>.-.X.X.O.] ^ ! ! Z v v v c g s a a ",
"; > > 2 2 2 > 2 0 0 q a a f g h h B B B F G K _ [ &.*.=.=.=.*.*.[ [ _ K G F F F F D c c c h g f a a e e 0 0 9 2 > > > 1 - - & & ",
"s s g j j j q g v U U T W ! / /  .....#.<.u.x.x.M.N.D.H.R.R.H.F.D.c.h.f.p.2.1.<.<.<.@.....| / ! T T v v z z j s s a p q 9 9 4 4 ",
"q a s j j j 9 z ~ ~ ~ / / / / /  .....<.<.t.a.g.h.c.V.F.U.H.V.M.x.g.a.r.<.........| / ~ W W v s s a q q q q 9 5 9 9 9 9 4 4 4 4 ",
"p z v v U v q v ` /  ...<.<.@.o.<.<.1.u.u.u.u.f.x.V.V.U.R.U.Z.N.h.g.d.t.<.#.;.<.<.#.o...| / ! v z g s a a s s a g c z s s a s s ",
"p a a p a a 4 a z v T R ~ / / | ..#.<.<.<.1.1.t.a.f.h.B.B.N.M.h.s.u.t.1.<.<.<.1.1.1.<.#......./ ! W W U v z j g g s a p q 9 q q ",
"p a p p p a 3 p j x U T R R / ` ..o.@.<.1.t.t.t.d.g.x.B.Z.Z.M.h.u.u.t.<.;.#.#.;.<.#.#...| | ' / W U W U v z j s a p 9 4 4 4 9 9 ",
"q p p p a a 3 a j x U ~ / ~ / / `  ...,.2.u.t.t.f.x.M.F.U.U.F.D.M.j.f.t.1.<.<.<.<.#...o.....| / / / ~ W v z s a a p p p a s s a ",
"s s j z v v 0 g U U T ~ `  ...o.@.$.<.2.d.f.j.h.j.x.j.h.M.M.h.g.h.a.u.t.2.2.1.1.1.<.1.2.2.2.1.@...o. .` ~ T v v v v z j j z j g ",
"a j j x v v 4 s v v T R / ..@.$.,.,.<.2.d.j.j.x.j.j.j.h.N.D.x.x.M.j.j.f.d.u.1.1.2.1.2.2.2.3.3.<.......` ~ T v v T U v z j j s p ",
"p a a s j z 2 a v v U T R R / ` ..$.,.<.1.2.d.d.j.f.x.N.V.F.V.V.V.c.c.c.f.d.d.d.u.u.3.1.1.<.<.o... . .` R U v x x x z s a a a 9 ",
"s j z z v T 4 a T U T / / /  .....<.<.1.3.p.f.f.B.S.G.T.T.T.G.I.T.G.S.S.S.v.S.S.v.v.v.v.z.p.p.3.2.1.,.@. .R T z z j j s p p p q ",
"o O + + + + o O # # # % % & * : 1 1 1 7 7 w w w y u i i M M M M M M M M u u y y y t t r r w 8 8 7 6 : * & % # + + + + o o o o o ",
"- ; < < , - ; , 1 1 2 0 q a s g j c j c c v T ^ ] X.-.:.>.>.7.>.>.-.X.X.X.X.] ] ] ] ] / ^ ^ T Z v c c c a q q 1 0 q q 0 4 2 > ; ",
"3 4 4 3 3 3 2 4 9 9 q s v U U R / / ` / / / ` o.<.1.d.f.z.z.z.z.f.3.1.<.<.<.,.,.,.,.@.o... .| / / ~ / / U v v 9 j T z s p 9 5 4 ",
"q q q 9 q p p a s j j z v R R  ........... . .....o.<.<.<.....| / ` `  . . .` / / / ~ T T U U T ! / / ~ T U T 0 s v j a a a s s ",
"q q 9 9 p a a s s z x j z v U T / ~ U T T Q ~ / `  ...@.@.@.............o.@.@.o..... ./ / ~ ~ ~ ~ / / ~ U U U 4 a j a q p p a a ",
"p p 9 9 p a s s s j k s z U U U R / /  .......o.o.o.@.o.......| `  ............. . .` ~ ! ! Q T U U v v j j z > q s a p q q 4 4 ",
"p p 9 9 q q p p p s s s j v v x T E ` ..o.@.@.$.o.@.@.o...` / U ! ` ` | | | ` ` ` ` ` | | / / ~ W v v x z z z > a z j j s s p q ",
"p p q p p p a s a j x v v U U U E `  . . .o.@.@.@.o.@.<.o... .! ! | |  ..... ...o.@.@.,.,... .~ Q v v v v U T > a x z j j s g s ",
"s a p d z z z x x v T T / `  . .o.,.<.<.,.<.1.<.1.<.<.<.@.o.../ T ~ R ~ / / / /  .........` / U v x x x z x x ; 0 a p p q q q q ",
"d s a s z x j j j j j z x v v U T / `  . . .` /  ....... . .` / / ` ` / / ` ` ` ` `  .` ` ` ` / Q U U U T R R 2 a z j p 9 5 9 4 ",
"p a p p a a a s a s s s s s g g j c v Z T T Z v Z Z T T Z Z Z Z Z Z Z Z T T T T Z Z F Z Z Z Z v v c c z c v v 1 0 s a q 9 9 0 4 ",
". X X X X X o X X o o o o o o o + + + + + + + + + + + # + + + # + + + % % % % # % % % # + + + + + + + + o o o X . X X X . . . . ",
"< ; ; ; < 2 4 3 3 5 q a a a a p a a a a s s a s s g j g s g z v v v v T ^ ^ Z v Z Z v v c c c z s p g g 9 4 4 , , 1 1 1 < ; - - ",
"; < 3 < < < < < < 2 4 9 q q q q q q q q q q q p p a a a q s j j s s g v T T v v T T U v v v z j s p s s 9 4 4 < 2 4 4 4 3 2 > < ",
"$ ; 2 - $ & = - - - < 2 2 2 3 3 5 5 3 3 3 5 4 5 5 q q q 4 p a a p q 5 a j z s s s s a a a p q 9 4 4 4 3 < - $ $ & $ & - - - - - ",
"O $ & # @ # $ $ # $ & - - - - - < < ; ; < 2 2 3 3 5 5 3 2 5 9 5 3 3 2 5 q p q 9 q q 9 5 5 4 3 2 > ; - - $ $ $ $ $ $ $ $ $ $ $ $ ",
"o O O O O O O O O O O # # # # # $ $ $ $ & - - ; ; 2 < < - - < ; - - - < > 2 2 2 3 3 2 < ; ; - - & # # # # # + # # O O O O o o O ",
". . . . . . . . . . . . . . . o o o o o o o o O O @ O O O O O O O O O O O @ O O + + # O O O o o o o . . . .   . . .             "
};
