/* XPM */
static char *result[] = {
/* columns rows colors chars-per-pixel */
"64 64 158 2 ",
"   c #561C01",
".  c #5C1D02",
"X  c #652403",
"o  c #6C2603",
"O  c #6D2904",
"+  c #722705",
"@  c #732A04",
"#  c #7A2E05",
"$  c #773006",
"%  c #7D3206",
"&  c #843406",
"*  c #893607",
"=  c #833807",
"-  c #8C3907",
";  c #853608",
":  c #8A3608",
">  c #863D08",
",  c #8C3A08",
"<  c #923B07",
"1  c #943D09",
"2  c #993F09",
"3  c #8D420A",
"4  c #964007",
"5  c #994207",
"6  c #95420A",
"7  c #9C4309",
"8  c #944A0D",
"9  c #9D4B0C",
"0  c #9C520F",
"q  c #9D5410",
"w  c #A2460A",
"e  c #A54A0B",
"r  c #AB4C0B",
"t  c #B04F0C",
"y  c #A4500D",
"u  c #AD520D",
"i  c #AE590F",
"p  c #B4530D",
"a  c #B9570D",
"s  c #B45A0E",
"d  c #BC5B0E",
"f  c #A15611",
"g  c #A95711",
"h  c #A45D14",
"j  c #AC5B14",
"k  c #B55E11",
"l  c #BF5D10",
"z  c #BB600F",
"x  c #AC6215",
"c  c #AC671A",
"v  c #AE681B",
"b  c #B46213",
"n  c #BC6412",
"m  c #BF6E15",
"M  c #B26418",
"N  c #B66C1A",
"B  c #BF6E18",
"V  c #BC731D",
"C  c #C15E0E",
"Z  c #C15E10",
"A  c #C4610F",
"S  c #C9650F",
"D  c #C56311",
"F  c #C96611",
"G  c #C36B14",
"H  c #CC6A12",
"J  c #D16E13",
"K  c #C77417",
"L  c #CA7515",
"P  c #C6731A",
"I  c #CA761B",
"U  c #CC7C1D",
"Y  c #D57214",
"T  c #D97615",
"R  c #D67815",
"E  c #DC7A16",
"W  c #D17D1F",
"Q  c #DD7D19",
"!  c #E17E17",
"~  c #E07F19",
"^  c #C47B23",
"/  c #CD7E21",
"(  c #D17E20",
")  c #CF831D",
"_  c #DD8017",
"`  c #D1821C",
"'  c #DE811B",
"]  c #E28117",
"[  c #E3841B",
"{  c #E6891D",
"}  c #E98C1E",
"|  c #EC911F",
" . c #CE8523",
".. c #C6842B",
"X. c #CE8C2A",
"o. c #D48523",
"O. c #D38A24",
"+. c #D78E2A",
"@. c #D88C29",
"#. c #D4932C",
"$. c #DA932D",
"%. c #C98C33",
"&. c #C98F3B",
"*. c #CB913B",
"=. c #D69731",
"-. c #D89934",
";. c #D99F3B",
":. c #E38620",
">. c #E68C21",
",. c #EA8E21",
"<. c #E79525",
"1. c #ED9324",
"2. c #EE9926",
"3. c #EF9728",
"4. c #EE9A29",
"5. c #F09625",
"6. c #F29A26",
"7. c #F19728",
"8. c #F39C2A",
"9. c #F89F28",
"0. c #D9A13F",
"q. c #F4A22D",
"w. c #F9A42D",
"e. c #F4A82C",
"r. c #F6A631",
"t. c #F8A732",
"y. c #F5AB33",
"u. c #F9AB34",
"i. c #F7AB38",
"p. c #F9AE39",
"a. c #F4B135",
"s. c #FBB136",
"d. c #F5B53A",
"f. c #FAB33B",
"g. c #F4BA3D",
"h. c #FBBA3E",
"j. c #CD9542",
"k. c #D9A240",
"l. c #DAA949",
"z. c #FBB742",
"x. c #F6BC42",
"c. c #FCBB42",
"v. c #F7C346",
"b. c #FFC145",
"n. c #F7C34A",
"m. c #FDC34A",
"M. c #FEC84C",
"N. c #FEC751",
"B. c #FDCA52",
"V. c #FDCE5B",
"C. c #FAD157",
"Z. c #F7D058",
"A. c #F9D45C",
"S. c #FAD661",
"D. c #FBDA64",
"F. c #FBDE6C",
"G. c #F8DE70",
"H. c #F8E073",
/* pixels */
"o + + @ @ @ # # # & # # * * & : : : : : 1 2 2 2 2 7 w r e e r r e e r e e r e w w e r w r w w w 7 2 < 2 : : < : & & * # # + @ + ",
"& & & * & * * * : : 1 1 w 2 w w w w w w w w w w t p a a Z Z Z Z Z D D Z Z Z l l Z Z l a l l l a d p e w w 2 2 2 1 1 : : # + & < ",
"& : * * : * : * : : 1 2 2 w w w w w w w w w r r t a l l D D D F H F F Z Z Z d a Z l Z l a l d a a p e w w 2 2 1 1 : : : & @ # * ",
"& * : : : : : < < < 1 1 2 2 2 w w w w w w e r r t p d Z D D F F H F F Z Z d a a a a a a a a p p r r e w 2 2 1 2 1 1 1 : * # # # ",
"< < 1 2 2 7 w w w w w 7 w e t t t a p t t r t p l a Z F F H J J H J J F J H F D F F F F Z Z D Z Z d a p r r r e r w w 7 2 < * : ",
"2 2 2 7 w w w w w e e e e e t r p a t r e w t p p a D H J Y T Y J T T E Q ~ ~ Q T T T J J J J F D D C d p p t r e w w w 7 1 < < ",
"1 2 < 2 1 1 < 2 2 2 2 2 2 7 w 7 w w w w w w r t p Z D Y E Q [ ~ Q T E T E E T T Y Y J J J F F F D Z d a t r r w 7 7 7 7 2 2 - : ",
"2 2 2 7 7 2 2 7 w w e r r t t t g a a a l Z D H J T Q >.3.7.8.4.<.1.5.:.,.,.:.:.~ ~ E E Y J H H F D C C a a a t r r r r e w 7 2 ",
"u a a a a d d d a C D D H L J J J E E Q [ :.,.,.1.2.r.y.f.d.h.x.z.f.d.a.y.e.e.e.q.2.2.{ [ [ E R Y J J H H F F A D D Z Z l a p r ",
"2 5 6 w 9 w 9 e e e e r u i s p l n n n D P P ^ U / ^  .X.X.X.X.X.X.X.X. ./ U ^ I I m n n b b k s s g g e e e r e e e e e 9 5 6 ",
"& ; * - : - - < < < 6 7 7 7 9 e r g g s a n n n n G G P P I I I I ^ I I P G G G n n i i r y f 9 e e 9 7 6 , : - < < 1 < < - 3 - ",
"2 2 7 w w w w w e w e r r r p a Z D F J Y Y E Q ~ [ [ ' } 1.,.1.,.>.>.>.>.:.:.[ [ ' H G Z l l l a l a a p 5 2 w e r r e r r r e ",
"2 2 7 w w w e e r r p p a l d Z Z F Y T T E E [ [ [ ,.>.1.2.5.1.,.:.:.:.[ >.,.,.>.>.E Y H H D D Z l C d C e 2 e r r e r w w w 7 ",
"2 2 2 7 5 w e t t p d C F J J J Y T T E T T Q [ >.>.3.8.q.w.8.3.:.! E Q E ~ ~ [ [ { ' Q E Y J H D D D A C e 2 w w e 7 w w 2 2 1 ",
"7 2 2 7 7 e r t t p d C F J Y E ~ [ ~ ~ ~ ~ [ ,.1.1.8.r.i.u.r.w.1.>.>.:.>.>.:.[ >.{ [ ' E Y Y J D D D C a e 2 r e w 7 w 7 w w w ",
"e e e e r t p p a d D F F J Y Q [ [ [ [ ,.,.,.7.8.8.8.r.i.t.r.t.t.t.r.q.8.8.q.8.4.1.[ Q E Y Y H F D D C a r 2 t r r r t e e e e ",
"r r r t t t a a d H J T Y T E E [ [ ~ [ :.,.5.7.6.9.r.i.i.i.i.t.q.8.7.1.5.1.1.,.>.{ Q Q E T T Y J F D Z a r 7 p r r e r e w w w ",
"w w e e e e t t d d F F H H H H T E Q [ ,.5.w.t.i.f.h.c.c.c.c.h.p.q.7.8.8.7.7.5.1.<.[ [ [ Q T T J F D Z Z u w a a a a a p p a r ",
"w e r t t p a Z d d S H J Y R E [ :.>.4.q.y.f.h.c.m.M.B.B.B.B.B.m.f.y.i.t.r.w.8.9.4.1.>.>.[ E E Y Y J F F a r n l l d a p a l a ",
"C C Z D D D H J Y Y R ' >.1.4.4.8.r.d.x.B.B.Z.V.A.D.F.F.F.F.F.F.D.A.Z.B.n.c.x.x.y.i.y.r.q.8.<.<.>.[ [ [ ' D k H H D l d s D F l ",
"6 6 7 9 9 9 9 f y y g x M N N N V ^ ^ ..%.%.%.*.*.j.j.j.j.j.j.*.&.&.%.%.%.......^ ^ ^ V V N N N c j x j h 8 , 9 8 6 6 6 6 6 6 3 ",
"< 1 1 2 7 e e r r r p s k n n n G H L I U / o.o.o.o.+.+.@.o.(  ./ W ( U W I I H K H n s p a k u e r e 7 2 < - , ; , ; ; & & & ; ",
"w e e t d d Z D F F H Y E Q [ { ,.,.,.5.6.q.y.r.i.f.i.h.p.r.8.7.4.8.7.7.5.3.<.<.} [ [ R J H H D D l Z l a t r r w 6 < < < 4 5 7 ",
"w e e e r d d Z A F H Y T [ [ [ { } } 5.6.9.q.8.w.y.i.p.p.p.q.9.7.7.7.7.6.6.6.6.6.6.1.[ [ [ T Y Y H D D l p a g t r e w e e e e ",
"p l a a a Z D H H J Y T [ :.1.1.1.1.1.1.6.5.5.5.8.t.p.f.z.z.f.s.i.r.q.q.8.9.8.8.7.5.,.{ [ ~ Q ~ T H D D d r r r r r e 7 7 5 7 5 ",
"r p p p p l Z D D F J T ~ [ [ { [ { } } 1.1.3.7.t.t.s.z.c.c.c.f.t.7.3.1.<.>.>.>.1.2.1.} ,.[ ' [ T J F D a r e e r e e w w w 9 7 ",
"e t r p a l D F F J T T Q ~ ~ ~ [ [ { 1.7.q.q.8.t.p.f.c.z.c.f.f.i.8.1.1.>.:.:.[ } ,.} { { [ Q [ T J H F C a t r e w r r r e e w ",
"r a a d Z D D F J J Y ! Q E ! E [ } } } 8.q.q.r.t.t.f.c.m.z.f.p.i.y.r.q.5.,.1.,.,.} Q Q Q E T Q E T J J A d a t r r r e e 7 7 2 ",
"r t p a a a k Z D H J E ~ [ [ { [ } } 1.1.6.7.9.8.r.f.c.N.m.z.f.f.f.y.q.4.1.1.1.1.1.[ Q ! T T E Q Y Y J D d d a a p t r e w 7 2 ",
"w e e r r r t l Z F J ~ } ,.1.1.1.1.1.1.5.6.8.w.i.h.c.m.B.N.z.i.f.f.i.w.7.3.1.1.6.5.,.} { [ ! ! ~ ! Q Y J A C S d a p r w w e e ",
"r t r r r t a l F H J ! [ } } 5.5.6.6.9.9.w.t.f.c.m.m.M.B.m.z.i.f.i.t.w.7.5.5.1.5.,.} } } { { { { [ ~ ! T J S A a p r e 7 5 w 7 ",
"a a l l l Z F H J J T [ ,.5.5.9.9.w.u.s.f.f.f.c.V.C.A.F.F.S.V.V.B.m.c.f.i.y.r.w.w.5.| } } { { [ [ [ ~ ! T Y H S a d a t r w w w ",
"a d C D F H J J Y Y R [ | q.2.q.y.y.d.a.c.x.v.n.Z.S.F.G.H.H.G.F.D.Z.n.x.h.d.a.a.y.w.2.| | { ' ' _ _ E R Y S H A d A A d s r r e ",
"9 e e e r u p i s s l G K K L U )  .O.X.O.#.=.-.;.k.l.l.l.l.l.l.0.;.-.$.#.O.O.O.o.o.) U U K K m m n z b i p p y r e e e 5 7 < 4 ",
"1 1 7 7 7 6 - 7 9 e r r u u a d z n D D G I ( o.o.o.$.$.$.$.$.+.o.o.W W I L K H H G G D z d d s p u y u e 9 e 2 4 < < , - - & ; ",
"e r r p t p 7 p d A A S S F H H Y T T [ [ 1.8.8.r.t.s.h.b.b.f.f.u.w.9.5.1.{ [ [ ~ ~ Y Y Y L S d d s p p t r r e e e 9 5 2 6 < 2 ",
"7 r t p a p 7 a H F H J Y Y J J E T Q [ { ,.5.8.9.t.t.h.c.h.i.t.q.7.1.>.[ E E E E Y J H S S d t u e 7 7 7 w 9 2 7 w 9 7 7 7 7 2 ",
"e p d p a p 7 a F H J Y Q ! T Q [ [ [ 1.,.1.,.5.8.r.t.z.c.z.u.t.8.7.1.} [ Q ' [ [ ~ ~ T Y J S C d p p r r r r r u p p r e w r e ",
"w e e w e e 2 e a d A S S H H Y T Q [ [ [ { ,.,.1.6.8.y.i.t.r.9.3.1.} { [ [ [ [ >.[ [ E R R T H S A D C d a p r u r w 7 2 5 7 7 ",
"w w w w w e 1 w r a C A S S H J Y Q ! [ } ,.,.,.5.7.q.i.p.p.r.q.1.1.1.{ ' Q Q ' [ E E T Y J J H A A D d d a r r e w 7 2 2 2 5 6 ",
"7 e e e r r 1 e p d C F H H H H J T Q ] } 5.} 5.5.q.w.s.h.z.f.u.t.9.6.,.{ [ [ [ [ _ E E R E Y J H H F D C s r e e e e e e t r e ",
"e r t p a a 5 t d A A F H Y T Q Q ! [ } 5.6.9.8.9.q.w.6.r.t.8.6.8.3.1.,.| { { { { [ { | } } { E E Q Y J F A d d d d p p t p p t ",
"e t t p d s 2 r d d A S H T Q ! ! ] ] } 5.6.9.9.9.9.q.4.t.s.w.q.r.9.9.6.2.2.} | } } } } | | | ' T T Y J F D d d A C d p t t e e ",
"e e r t p a < e d d d S S S H J T ! ] [ } } 5.5.q.6.e.y.t.f.i.u.t.w.w.w.6.| 2.| | | | } { [ [ _ T T Y J F C d d a a p r e e e 5 ",
"r t p p a d 2 e C d A S H S Y Y R ' [ { } 2.2.2.e.a.d.g.v.g.g.g.x.d.a.a.e.e.a.e.e.e.e.e.| | | | [ [ Q E Y F A p p p p r e w w 7 ",
"O # $ $ $ $ O @ % % & = % > 3 6 6 6 6 8 9 y f f h x c c v v v v v v c c x x h h h h h h h h 0 0 9 8 6 3 > % % # $ $ @ O + o O o ",
"# & & & & % & & % = - , 6 9 w e y i r u i s z n m L U ) ) ` ) ` ) U L L K U G G G G G S n z z b i i u y 5 6 < = , 4 < , - & & & ",
"< < < < - < - - 4 4 5 e p d d A A F H S S S H R _ { | 2.| 6.6.6.2.| [ ' _ _ _ _ _ _ R R R Y J S S S S S d a a 5 r s p e w 4 1 < ",
"2 2 7 2 2 7 7 w w t r t C C S J Y E Y E Y Y Y T Q ! { { } [ ~ E T T T T T T Y J Y J J H F S F A F S H H A C d 5 u d p e e w r w ",
"7 7 7 7 w e e r t p a t a C S S H H S S H S H J J Y Q ! Q Q R Y J Y Y T T E T T Y J J F F D D S F H H F A C C 7 e p r w w w r r ",
"w 7 6 5 w w e r r t a t p C C C S H S H Y J Y Y T T E Q T T R Y T T E T E E E E Y T J H F D S A A A A d a a a 1 w r e w 7 7 2 2 ",
"w w 5 4 7 w e e w t t r t d C C S S Y R R E E Q E Q Q T T Y J S H J J Y Y J T J J J L H H F S S A d d d p p p - w r r r w w 7 2 ",
"w w 2 w 7 7 e e e r t p a C C d S S Y Y T E E E E E Q Q T Y Y A A Y J Y T Y J T T Y T Q R Y J S D d d d d d d < e a p t p r r e ",
"e w w e r r t p t a C C A S H S Y E E E E ~ [ ' [ ! [ [ Q T T S A H H J J J J J T Q T ! _ Y J S d d a a a d d - 7 t r r r e e e ",
"r r e t a a p p p a C C A S H H Y E Q Q Q Q Q E Q ! _ Q T E Y J S H H S H J H J Y Y T T Y J J S C d d d C C a < 7 r e e 7 2 2 2 ",
"r r e r p p t t t t t p p a a d d S S H J J H F H Y J Y J H H S S H H H S H J H H H H S H H H S D d C C C S A < w p t e 5 2 5 1 ",
", , , , , - : < - < < 4 , , 6 4 7 5 9 e e y e 9 9 y e e 0 y e e e 0 y y y e y y 0 y y e 0 e 9 e 9 9 7 9 7 9 7 % % , , ; & & % & ",
"X X X X o o + X o @ @ @ $ $ $ @ % # % % % % % % % % % & % % % * & = % 3 3 3 > = > 3 > & % % % & % % % % @ O O X X O O X X X X X ",
", * - * * - 1 < < 1 7 e e e e w e e e e e e e r u u t r r u p d d d d A S S A d A A d d z d s p r e p r 6 2 1 * ; , > , , - & & ",
": , < * * * * & - - < 4 2 2 6 7 7 2 2 2 7 7 7 7 w w w e w e r t e r r p z A a d d C d d s d t u e 9 w e 6 < < & , - < < < - : : ",
"# & : & # # & & % & * * - * < < 1 2 < < - 2 1 2 2 4 7 2 1 w w e w 2 2 w u p r e e r w w w w 7 1 1 < < < * & # # # # # & & & & & ",
"X # # + + + # # @ # # & & & & & * & * & : - - 1 < 2 2 < - 1 2 1 < < - 2 5 7 4 5 7 7 4 2 2 < < - * * & & # # # # # # # # # # # + ",
"X X o o o o o o o X o @ + @ o @ # # # # # & & & * - * * & & * & & & & & * - - - - < - * & & & & # + o + @ @ O + + X o o X X X X ",
". . . . . . . . . . . . . . . X X X X X X X X o o + o o o + o o o o @ o o @ o O O @ @ o + o X X X X . . . .   . . .             "
};
