/* XPM */
static char *result[] = {
/* columns rows colors chars-per-pixel */
"64 64 238 2 ",
"   c #18191A",
".  c #0E0F11",
"X  c #33241A",
"o  c #392D28",
"O  c #3B322E",
"+  c #3D3634",
"@  c #2A2826",
"#  c #1F1F20",
"$  c #5B1D02",
"%  c #571B02",
"&  c #583519",
"*  c #4F2C15",
"=  c #6B2604",
"-  c #6D2904",
";  c #662404",
":  c #732B05",
">  c #7A2E05",
",  c #7C3106",
"<  c #79350B",
"1  c #793C15",
"2  c #6B3B17",
"3  c #4B342A",
"4  c #4A362C",
"5  c #553728",
"6  c #443C3B",
"7  c #493D3A",
"8  c #493A35",
"9  c #573A34",
"0  c #452E27",
"q  c #683929",
"w  c #763B26",
"e  c #6B3D36",
"r  c #79461A",
"t  c #68421C",
"y  c #4B413D",
"u  c #57453B",
"i  c #57412A",
"p  c #684427",
"a  c #784726",
"s  c #684937",
"d  c #774537",
"f  c #765633",
"g  c #4C4543",
"h  c #544643",
"j  c #524946",
"k  c #5A4A45",
"l  c #554D4B",
"z  c #5B4B47",
"x  c #5B514D",
"c  c #57504F",
"v  c #5D5552",
"b  c #5D5755",
"n  c #694B46",
"m  c #764C44",
"M  c #68544A",
"N  c #77574A",
"B  c #635A56",
"V  c #655D5A",
"C  c #695B56",
"Z  c #785853",
"A  c #6C615D",
"S  c #65605E",
"D  c #73655D",
"F  c #78665A",
"G  c #6D6562",
"H  c #6F6A68",
"J  c #736965",
"K  c #7A6D65",
"L  c #746C6A",
"P  c #756965",
"I  c #7C716D",
"U  c #77716F",
"Y  c #7E7571",
"T  c #7E7876",
"R  c #843306",
"E  c #8C3906",
"W  c #85360A",
"Q  c #893608",
"!  c #8C3A09",
"~  c #873909",
"^  c #923B07",
"/  c #933D09",
"(  c #993F09",
")  c #863932",
"_  c #8D420C",
"`  c #95420A",
"'  c #9C420A",
"]  c #9D4A0C",
"[  c #974A0D",
"{  c #894816",
"}  c #954914",
"|  c #8D5319",
" . c #995619",
".. c #A2460A",
"X. c #A5490B",
"o. c #AA4C0B",
"O. c #AD510D",
"+. c #A6500D",
"@. c #B4530C",
"#. c #B9570D",
"$. c #BC5A0E",
"%. c #B45A0F",
"&. c #A75716",
"*. c #BC5D11",
"=. c #B35812",
"-. c #A84F12",
";. c #AA6219",
":. c #BA6617",
">. c #844A26",
",. c #875828",
"<. c #9A5823",
"1. c #864833",
"2. c #934F37",
"3. c #A65826",
"4. c #A85634",
"5. c #A94F35",
"6. c #94652D",
"7. c #A9642C",
"8. c #B87029",
"9. c #9E601B",
"0. c #C15E0E",
"q. c #C05F10",
"w. c #C4610F",
"e. c #C9650F",
"r. c #C46311",
"t. c #C96611",
"y. c #CC6A12",
"u. c #C46B19",
"i. c #D16E13",
"p. c #C77419",
"a. c #D47315",
"s. c #D97916",
"d. c #D87A18",
"f. c #C67D24",
"g. c #875A55",
"h. c #975B55",
"j. c #8E5047",
"k. c #B44C46",
"l. c #A6554B",
"z. c #B85349",
"x. c #A55C54",
"c. c #B55952",
"v. c #AC4E43",
"b. c #88645B",
"n. c #99625C",
"m. c #91735F",
"M. c #A5645B",
"N. c #B9655B",
"B. c #B0654B",
"V. c #876B66",
"C. c #966965",
"Z. c #84746C",
"A. c #817671",
"S. c #837A75",
"D. c #8A7C73",
"F. c #867D79",
"G. c #897E7A",
"H. c #967571",
"J. c #B06D65",
"K. c #C75A53",
"L. c #C3534D",
"P. c #C96559",
"I. c #D2675C",
"U. c #CB6745",
"Y. c #D56E63",
"T. c #C7756B",
"R. c #DA756B",
"E. c #DD7C72",
"W. c #C87167",
"Q. c #E37D74",
"!. c #DD811A",
"~. c #E08219",
"^. c #D58621",
"/. c #8C827D",
"(. c #8C8077",
"). c #94847C",
"_. c #98897D",
"`. c #9E826C",
"'. c #A9886D",
"]. c #A58C7F",
"[. c #D7857D",
"{. c #CA8379",
"}. c #E9847A",
"|. c #F0877B",
" X c #8D8581",
".X c #918682",
"XX c #958983",
"oX c #9A8D84",
"OX c #998E8A",
"+X c #968C89",
"@X c #9D928C",
"#X c #9E9186",
"$X c #9E9390",
"%X c #A1958B",
"&X c #A8988B",
"*X c #A69B95",
"=X c #AB9E93",
"-X c #A59A95",
";X c #A89386",
":X c #ADA29B",
">X c #ADA195",
",X c #B3A494",
"<X c #BBAC9C",
"1X c #B5A79A",
"2X c #B7ABA3",
"3X c #BEB2A7",
"4X c #AFA4A0",
"5X c #D48D83",
"6X c #EC8C83",
"7X c #E58B82",
"8X c #F2968C",
"9X c #F69D94",
"0X c #EE9289",
"qX c #C6AF9D",
"wX c #FAA299",
"eX c #E2B39E",
"rX c #C2B4A3",
"tX c #CCBDAA",
"yX c #C6B7A7",
"uX c #C7BBB4",
"iX c #D5BEA9",
"pX c #E5B7A2",
"aX c #D4C3AE",
"sX c #D4C5B1",
"dX c #DBCBB5",
"fX c #D9CBB6",
"gX c #DED1BB",
"hX c #CDC1B1",
"jX c #E3D3BC",
"kX c #E8D7BF",
"lX c #E2C6B0",
"zX c #EADCC5",
"xX c #E6D9C3",
"cX c #EEE2CB",
"vX c #F2E5CB",
"bX c #F5EBD3",
"nX c #F9EFD6",
"mX c #FAF2D9",
/* pixels */
"= - : - - : > > R > > > , < 2 < < < Q ! / / / / ( ' X...o.X.o.o.X.o.o.o.X.X.X.X.X.X.o.X...' _ W < < < ! ! ~ Q Q Q W R > > : : : ",
"R R R Q Q Q Q Q Q Q W W 1 p s e s p a _ ' ..X.X.O.#.#.#.*.*.*.w.w.*.w.w.:.0.$.#.q.q.#.=.-. .a s s s p a { ` ' / ^ ^ ! Q R : R Q ",
"R Q Q Q Q Q Q ! Q Q 1 w n D G P P G m e 1 _ ..X.O.#.$.q.r.r.w.e.y.y.w.w.0.0.$.#.q.*.-.| a N F K I K P N d 1 ! / ( ! ! Q R : > W ",
"R R Q Q Q Q ! ! R 2 s C I F..X.X.X XA.A n w _ X.@.#.*.r.t.r.t.y.y.y.e.*.0.0.#.#.#.} >.N F S.XXOX+X.X).D.V n w ~ ^ / ^ ! Q > > > ",
"^ ^ ( ( ( ' ..( 1 n G S.Z.V.H.H.+X+X+X.XI M w } @.$.r.t.t.y.y.y.:.y.y.y.i.y.y.r.=.>.C G.+XOX$X+XG.H.H.V.A.D n ~ ' ....' ( ^ W ^ ",
"( ( ( ( ......{ d D S.Z.b.x.x.M.C.H.).$X+XS.M a } @.r.y.i.a.a.:.] :.p.d.~.~.s.u.>.n Y .X$X$XH.H.M.M.h.h.V.Z.D s } ..X.X.( ( ! ! ",
"^ ( ^ ( ^ ^ ! w M Y A.g.h.z.z.c.l.l.C.OX$X.XU z w =.r.i.a.p.:.a 5 | 9.:.d.d.y.&.e H G.$X$XH.n.l.c.c.z.c.h.b.I M a / ' ' ( ( ! Q ",
"( ' ( ' ..' _ n K Z.h.l.K.K.K.K.z.k.x.H.OX.XF.A s &.d.^.^.9.a u 8 s s ,.8.!.p.a n A..X+X.XC.l.k.z.K.K.K.c.x.b.P s } X.o.o.X.( ( ",
"@.@.@.#.#.@. .C A.b.x.I.Y.I.K.K.L.L.k.h.D..X/.L u 6.^.f.6.s y g l A x s 6.8.7.i b Y /.).C.l.k.z.K.K.K.K.I.c.g.D n  .q.w.*.$.@.o.",
"` ` ' ....] >.C V.h.I.Q.Y.Y.I.K.K.L.k.l.C.S.S.L j p 6.,.s x b b G Y L b C ,.f O l H I V.j.v.k.L.K.I.Y.R.R.Y.h.Z n r } ....' ' ` ",
"R W Q ^ ! ~ q x C.J.R.Q.Q.Q.R.Y.K.L.v.) m D Z.G g y s u b H L U T /.S.U H A l y j A A n ) j.k.L.I.R.Q.Q.Q.Q.W.g.k & < / ^ ^ ^ ! ",
"( ( ( ....} w k C.E.Q.Q.Q.Q.Q.Q.L.k.) ) 5 x A V l z C S U (./..X+X.X X(.S.U D B v V x 4 q ) k.L.R.Q.7X6X6X6XQ.h.n 5 / X.X.X.o...",
"( ' ..' ..' 1 k J.6X6X6X|.Q.}.Q.K.v.w e o y b S S J L Y /. X@X:X:X:X+X.X/.S.T L G V g 0 5 w k.L.R.Q.|.6X8X8X7Xx.n 0 / X.o.X.' ' ",
"( ( ' ' ' ' a k C.6X8X8X6X|.Q.Y.K.5.w w 0 + v H I T (..XOX$X4X3XuX3X4X$X@X XS.S.Y A 6 4 5 w l.P.Q.Q.|.6X9X9X6Xn.n O W ....( ( ^ ",
"' ' ( ' ' ' a h C.}.9X9X8X6XQ.E.P.k.) q 4 y b U T /. X$X:X:X3XuXuXuX3X4X:X+X/./.F.L l y 9 e j.W.Q.6X|.8X9X9XE.h.n o ~ ] ( ....( ",
"X.....o.o.X.>.h g.T.9XwX9X8X|.Q.R.c.j.9 y x H T (. X$X:X4X4X3XuXhXuX3X2X:X@X.X X/.Y A l 7 e k.R.6X6X8X9X9X9XT.g.k 0 ` o.X.X.o.o.",
"o.o.o.O.@.o.{ z Z n.7XwXwX9X8X|.Q.P.j.9 l G U S./.+X-X4X2X4X2XuXuXuXuX2X:X:X$X.X/.F.I V h d c.R.6X8X9X9XwX7XM.Z k & ` o.X.X.X...",
"......X.X.X.} u B g.{.9XwXwX9X6XQ.N.g.z b L A.S. X+X-X:X:X:X4X3X2X3X2X4X-X*X*X$XoX/.F.J B m h.R.6X9XwXwX9XT.g.C 7 2 o.#.@.@.@.O.",
"X.o.o.O.O.o.-.a M Z C.{.8XwX9X0XT.h.n v G T T F. X.XOX$X-X*X*X:X:X:X>X-X-X-X-X-X+X.XF.I V h m M.7X9X9X9X{.n.M k 5 { @.$.#.$.0.#.",
"$.0.w.r.r.r.r.3.s x N n.T.5X5X'.M.n j V U A.A.A.T (. X.X+X$X*X*X-X-X-X@X@X@X@X+X/./.F.Y G h 7 Z T.5X5XT.J.N k 8 2 &.$.$.#.w.w.0.",
"` ] ] ] ] ] ] } p 9 u n N b.m.F n 7 g G Y A.U G b G H /..XoX@X$X-X%X+X.X.X/.H G G L S.A.J x y s g.n.C.g.N h 8 5 1 _ ` ` _ ` ` _ ",
"E / ^ ( ' X.X.X._ 2 4 7 6 4 y y 8 O j G A.A.V + + b c U /..X.XXX.X.X/./.(.L b l + l J Y L b y 6 6 g h 9 8 4 * 2 , W W W W W R R ",
"..X.o.o.#.$.r.:.w.&.r 5 o o o o X @ l H A.Y g # + U g G /..X/./././././.S.S b G # @ B U J B y O o o o o X & _ ' ' ` ^ / ^ ' ' ' ",
"..X...o.o.$.$.0.w.*.O. .r r t & # @ l U /.U 6 . @ b @ V /.XXXXXX/._././.T b + j . @ x I K S y O 0 & & 2 < _ +.O.@.o.X.X.X...X.o.",
"@.#.#.#.$.w.r.y.y.y.i.y.y.p.:.r X o x A._.(.6 .   # # b .X#X&X%X@XoX_./.(.j # # . @ c Y Y J z 3 2 |  . .o.o.o.o.o.o.X.' ' ' ..' ",
"o.#.@.#.#.*.w.r.r.t.a.a.a.~.p.r 0 o B S.#XXXc # . . o Y &X,X3XrX<X<X=X#XXXb   . . @ B _.).Y S y * _ :.*.@.o.o...X.X.X.........' ",
"X.@.@.@.#.$.w.e.y.y.a.s.!.!.a.| * 7 I @X1X<X_.v + + A 1XaXdXlXaXeXpXhXqXrX_.g @ O l `.,X,X].I y *  .:.e.$.#.O.o.X...o.o.o.X.....",
"O.#.#.#.w.w.w.y.y.a.a.u.;.;.;.,.5 M G.1XrXaXhX<X#XXX<XgXkXzXpX0X8X8XlXjXjXsX=X(.(.&X3XrX<X&XS.k & { &.&.-.@.@.@.o.o.o.X...' ..' ",
"o.@.#.#.#.#.#.*.r.y.t. .{ r r t 9 b .X1XrXsXkXcXgXfXjXcXvXvX5XR.Y.W.aXcXcXjXdXaXaXdXaXrX3X=XY k & t r r 1 X.#.$.#.@.@.o.......' ",
"..X.o.o.o.o.@.$.w.r.t.:.;.9.9.r 4 l S.=X:X3XfXcXcXcXkXdXjXvXpXJ.j.J.dXvXgXaXsXgXkXjXhX<X:X&XK s a | [ ] &.=.:.w.0.#.@.o.X...X...",
"o.@.o.O.+.O.#.w.t.y.i.d.^.p.;.r & 4 x U /.=XrXjXjXkXdX<X3XxXjX`.i ].kXgX<XqXaXdXdXdX1X.XY D x p 9.;.;.:.y.y.t.t.#.@.o.X.' ' ....",
"#.#.$.$.$.w.e.y.y.a.a.~.!.9.| a ,.p i l P _.<XsXgXdXsX<X&XrXrX(.u ;XhX,X,XaXaXaXaXyX&XI u y t | ;.| { 9.y.i.t.0.#.$.$.O.o.......",
"#.$.w.w.e.e.a.a.s.i.s.~.^.,.,.7.f.8.,.f F D.=XtXaXsXaXrX>XoX_.S.K ).@X_.1XsXaX<X<X&X_.C i p  .p.:.| r r ;.:.y.w.*.w.w.*.#.O.X.X.",
"....o.X.O.O.O.@.%.%.$.:.;.9.9.:.^.p.7.,.f M K _.&X,X,X<X>XoX_._.)._._._.,X<X,X#X).K C f r  .;.p.:.&._ { [ +.O.+.+.X.X...' ' ` ` ",
"` ` ` ` ' ` ^ ` ] +.+.O.+.+.#.#.%.:.:.;. .5 y x A J S._.#X#X#XoX_._.XXoX_.(.L A c g 4 r  .#.%.%.O.O.+.+...X...( ` ^ ^ ^ E E R R ",
"X.X.O.@.@.@.' @.$.w.*.e.e.e.y.y.i.!.!.:.| 5 6 y y l H _.#X#X#X+X_.XX_.XX(.A x y + + i f ;.y.y.$.$.$.@.@.O.O.o.X.......' ' ' ^ ^ ",
"..X.@.@.#.@...#.y.y.y.i.a.a.i.a.s.!.a.9.i u c l x A (.@X>X>X>X>X=X=X=X=XoX(.A l y h x s ,.&.$.O.O.X...' ' ' ..' ........' ( ' ' ",
"X.@.#.#.#.#.' #.y.e.i.i.~.s.s.s.~.~.a.f u b S S S Y &X<X3X3X2X2XrXrXhXhX3X<X_.L A B A V f &.r.r.$.@.O.O.O.O.o.o.@.@.@.o.X.X...o.",
"..X.X.....X.^ ..#.$.w.e.t.y.y.a.d.d.;.f S S S S S _.rXaXhXsXsXhXsXgXsXsXgXgX<X XP S G J C ,.:.u.e.r.e.w.$.#.@.O.o.o.....( ( ' ' ",
"..X.....X...` ] @.#.$.e.t.e.y.a.p.:.,.D I D B S U <XxXgXgXcXcXgXcXbXcXxXbXbXgX$XI S G I J n  .r.r.*.w.*.$.#.O.o.....' ( ( ( ' ..",
"( X.X.X.X.X.( X.#.#.*.e.y.y.y.y.y.<.N I S.J V G (.hXbXcXcXmXbXcXbXmXbXcXnXnXkX>XS.S S K U C ,.;.y.a.e.w.$.#.+.o.o.X.X.X.o.o.o.o.",
"o.o.@.#.#.#.' O.$.w.w.e.i.a.s.s.:.,.D (.F.J S G /.sXbXbXmXmXnXmXmXmXmXbXbXbXgX1X(.S A I F.K 6.8.d.s.a.i.e.w.$.$.#.*.@.@.@.@.@.o.",
"X.@.@.@.$.#.` o.$.$.w.e.y.s.s.s.7.N F._.(.J A U _.hXcXbXmXmXmXmXmXmXbXcXcXcXgX,X(.A B Z.).(.F 7.a.a.a.i.y.w.$.$.r.0.#.#.@.@.o...",
"X.X.X.o.@.#.^ X.#.$.w.w.e.e.y.y.7.m.].;X_.J P A.#XsXxXvXbXmXmXmXbXbXcXgXgXgXsX&X/.F A (.;X].m.,.:.a.a.i.e.w.$.#.#.#.@.o.X.X.X.' ",
"o.O.@.@.#.$.` o.0.$.w.y.y.y.i.p.8.M.5X5XJ.b.J D.%XaXzXgXjXbXbXcXcXcXxXdXgXgXaX&X).K Z J.{.{.M.,.p.!.!.d.i.w.w.#.#.#.@.o.......` ",
"- > , : , > - : > , , ~ ~ W E _ w M.[.Q.N.F V.D._.yXgXaXaXkXcXjXxXxXjXdXjXjXdX,X_.K Z x.R.E.N.w ~ } _ _ ~ W , > : : : : - - - = ",
", W R R R , R R R W ` { } ' X.X.} x.Y.I.j.M Z./._.<XsXsXaXgXkXgXfXgXjXjXjXjXaX&X_.I M d x.I.x.{ ] +.+.O.X.` ^ W ! ` ^ ~ E W R R ",
"E ^ ^ ^ ^ E E ^ ` } 5.4.3.#.$.$.@.4.z.j.e k Z.oX_.&XaXaXaXsXdXfXfXfXjXjXgXdXqX]._.Y M 3 d 2.4.&.:.r.t.e.#.#.%.' +.#.@.X...( ( ^ ",
"` ( ' ( ( ..( ..X.-.B.I.U.p.i.i.y.:.<.q 7 z Z.#XoX).,XqXyXiXtXqXiXdXfXdXiXyX=XD.Z.I M O 3 a &.#.e.y.y.e.w.$.w.] o.$.@.X.X.X.X.X.",
"..' ' ' ....o.o.o.-.B.R.Y.U.u.r.u.:.| 3 6 y K _._.Z.).&X<XqXqX,X3XyXtXtXqX,X_.P J A b 6 3 { *.r.e.y.y.y.w.w.$.' X.#.X...X.X.X.X.",
"....' ' ....o.o.o.=.4.P.P.I.U.8.7.&.a 8 6 6 V D.D.J I Z.&X,X<X;X,X1X<X,XoXD.A.C C B x y 3 r r.r.w.w.w.*.#.#.#.^ ' X.X.....( ' ( ",
"....' ' ........o.o.-.4.l.W.I.P.B.1.9 7 6 + l P J V C S _.&X&X#X;X&X&X_.D D C l x x l 6 3 { r.t.w.*.$.#.@.@.#.^ X.@.o.o.X.X...( ",
"....' ..' ....o.X.o.O.&.1.v.c.J.h.M h 7 + O y v B x x l L S.D.D.D.(.D.F g x n j x B h 4 2  .y.t.w.*.$.#.$.$.$.^ X.#.#.@.o.o.o.X.",
"......o.o.o.o.@.@.#.*.#.&.<.4.c.h.M j 7 O 8 z x j j j j x x B C A A B j 6 g g z N b.N 9 | :.i.r.w.$.$.#.$.$.$.E ..O.o.o.X.X...X.",
"O.o.X.o.#.@.#.#.@.#.*.#.=.=.<.4.2.n h 8 4 n h.g.n k h y 6 6 j x x c h + O 6 u g.J.T.J.l.3.u.y.e.w.$.$.$.$.0.$.^ ' o.o...' ( ' ( ",
"o.o.X.o.@.@.o.@.O.@.@.@.@.@.O.&.<.a n m j.N.R.T.n.m 9 6 g B C G G G B g 0 8 m M.E.|.|.W.z.3.r.w.w.$.w.$.w.w.w.^ ..@.O.....' ' ( ",
"~ ! E E Q E E ^ ! / ( / E ` E ` { w n M.W.Q.|.E.x.j.k l G G././..X+XG.L c h j.x.E.}.}.Q.P.2.>.] ] ] ] ' ' ] ` > R E ! W ~ R , , ",
"; ; ; = = = - = = : : : > : : : < 1 p j.x.N.N.B.j.n V S.XX%X%X%X&X&X$X+XS.C n m l.N.P.x.j.1.r < , , , , : - : = ; = = = ; ; ; ; ",
"Q E Q Q Q ! ^ ^ ^ ( ` ..X...X.X.X.} } r a 1.d 1.s N m.`.'.'.'.'.'.`.'.'.'.b.j.s 1.1.1.a w } &.@.o.X.@.o.' / ^ ^ E E E E E E R Q ",
"Q ! ^ Q Q Q Q R W E ^ ( ( ' ' ` ..( ( E < < W { }  .7.7.4.7.7.7.7.7.7.7.7.7.&.3.} ] } } ] +.+.@.X...X...( ^ Q Q E E ^ / ^ E E Q ",
"> Q Q R > > R R R R Q E E Q E ^ ^ ^ ^ ^ ^ ^ ^ ^ ^ ( ( ( ( ..X.....( ' ..@.@.o.o.o.X.X.......( ^ ^ ^ ^ ^ Q R > > > > > R R R R R ",
"= : > - : = > > = > > R R R R R Q R Q Q Q E E ^ ^ ^ ^ ^ E ^ ( ^ ^ ^ E ^ ( ' ` ` ( ( ( ( ^ ^ ^ Q E W , R > > > > > : > > > : : > ",
"; = = = = = = = = = = - - - = - > > > : R R W Q Q Q Q Q Q Q Q R R R R Q Q E E E ^ ^ E E Q Q R R > - - - - = = = - = ; = = ; ; = ",
"$ $ $ $ $ $ % $ $ $ $ $ $ $ $ ; ; ; ; ; ; ; - - - : - - = = = = = = = = = : : = - : - - = = ; ; = ; $ $ $ $ % $ $ $ % % % % % % "
};
