/* XPM */
static char *_ad082fe667042aed63233c8eff22b60UVTBotWPD84pKoHt[] = {
/* columns rows colors chars-per-pixel */
"64 64 227 2 ",
"   c None",
".  c #0C0B0D",
"X  c #030508",
"o  c #110D0D",
"O  c #15100F",
"+  c #140F10",
"@  c #0F1013",
"#  c #151213",
"$  c #1B1414",
"%  c #1D191A",
"&  c #1B1818",
"*  c #0D0E11",
"=  c #221C1C",
"-  c #371B19",
";  c #3B201F",
":  c #251F20",
">  c #252122",
",  c #2A2425",
"<  c #2E2929",
"1  c #2B2728",
"2  c #342D2C",
"3  c #382828",
"4  c #39302F",
"5  c #312F31",
"6  c #363131",
"7  c #3B3434",
"8  c #3E3838",
"9  c #452928",
"0  c #572826",
"q  c #443C3B",
"w  c #4B3D3C",
"e  c #453534",
"r  c #573836",
"t  c #50302E",
"y  c #672C29",
"u  c #693835",
"i  c #773B37",
"p  c #742D29",
"a  c #4A413E",
"s  c #47403E",
"d  c #5A413B",
"f  c #474140",
"g  c #4C4443",
"h  c #4E4949",
"j  c #534543",
"k  c #524946",
"l  c #544C4A",
"z  c #5B4C4A",
"x  c #5B524E",
"c  c #55504F",
"v  c #5C5553",
"b  c #595555",
"n  c #694B48",
"m  c #764845",
"M  c #625652",
"N  c #625955",
"B  c #645C5A",
"V  c #6A5E5A",
"C  c #6C5854",
"Z  c #795754",
"A  c #6E524E",
"S  c #6B625D",
"D  c #67605E",
"F  c #74635D",
"G  c #6D6563",
"H  c #6D6666",
"J  c #716662",
"K  c #736A65",
"L  c #756D6A",
"P  c #786E6A",
"I  c #7C6C66",
"U  c #7B716D",
"Y  c #7D7472",
"T  c #7F7A74",
"R  c #933B36",
"E  c #843631",
"W  c #95433E",
"Q  c #A8433D",
"!  c #B2443E",
"~  c #864B47",
"^  c #984A45",
"/  c #88524C",
"(  c #92524C",
")  c #9C544D",
"_  c #885A56",
"`  c #975A54",
"'  c #A84943",
"]  c #B44B45",
"[  c #B94B45",
"{  c #A6534C",
"}  c #BA514A",
"|  c #A75B52",
" . c #B75A53",
".. c #8E615C",
"X. c #B16559",
"o. c #896B68",
"O. c #976965",
"+. c #81756C",
"@. c #88796F",
"#. c #817773",
"$. c #837975",
"%. c #8B7C74",
"&. c #857C7A",
"*. c #897F7A",
"=. c #937B77",
"-. c #B37169",
";. c #C4534D",
":. c #C8564F",
">. c #C45C55",
",. c #CB5B54",
"<. c #C95750",
"1. c #D05F59",
"2. c #CC625B",
"3. c #D2635C",
"4. c #CB6E65",
"5. c #D56B63",
"6. c #DA6D64",
"7. c #D36760",
"8. c #C5746A",
"9. c #D2786B",
"0. c #D97569",
"q. c #D17B73",
"w. c #E1776E",
"e. c #E67869",
"r. c #F17D6F",
"t. c #E37B73",
"y. c #E37B74",
"u. c #F27D71",
"i. c #8C827D",
"p. c #868178",
"a. c #93857C",
"s. c #9A8A7D",
"d. c #93847A",
"f. c #D9857B",
"g. c #C9847A",
"h. c #E78179",
"j. c #E9847C",
"k. c #E8887A",
"l. c #FB8C7D",
"z. c #F58A79",
"x. c #8E8482",
"c. c #8B8B8B",
"v. c #908783",
"b. c #948A84",
"n. c #9A8D84",
"m. c #958C89",
"M. c #998F8C",
"N. c #9C928D",
"B. c #9C9188",
"V. c #9E9491",
"C. c #9C9C9D",
"Z. c #A3958A",
"A. c #A5998E",
"S. c #AB9B8C",
"D. c #A49485",
"F. c #B19F8F",
"G. c #A19693",
"H. c #A49B95",
"J. c #AA9C92",
"K. c #A69C99",
"L. c #A99F9B",
"P. c #B19F91",
"I. c #AEA296",
"U. c #ACA29D",
"Y. c #A7A199",
"T. c #B3A393",
"R. c #B2A59B",
"E. c #B5AA9C",
"W. c #BCAC9C",
"Q. c #B9A896",
"!. c #B2A08F",
"~. c #AFA4A1",
"^. c #B1A7A3",
"/. c #B4A9A5",
"(. c #B9AEAA",
"). c #BAADA5",
"_. c #BDB2A8",
"`. c #BFB5B1",
"'. c #D99284",
"]. c #ED8A82",
"[. c #E68981",
"{. c #F38E85",
"}. c #EC9289",
"|. c #F3948C",
" X c #F79789",
".X c #F79C93",
"XX c #C4AA98",
"oX c #C3B19E",
"OX c #FBA49B",
"+X c #FBA399",
"@X c #F1B29D",
"#X c #C4B5A4",
"$X c #CBBAA6",
"%X c #CCBCAA",
"&X c #C5B9A9",
"*X c #D1BBA8",
"=X c #C6BBB6",
"-X c #FDAAA0",
";X c #E5B4A1",
":X c #D2C1AD",
">X c #CDC1B1",
",X c #CCC1BD",
"<X c #D3C6B3",
"1X c #DBCAB4",
"2X c #DCCEBA",
"3X c #D6C8B6",
"4X c #DED1BC",
"5X c #CEC1AE",
"6X c #E0CEB8",
"7X c #E3D3BC",
"8X c #E9D6BE",
"9X c #F3CFB8",
"0X c #DAD1C5",
"qX c #E2D6C1",
"wX c #E6D9C3",
"eX c #EBDBC3",
"rX c #E9DEC8",
"tX c #F0DDC4",
"yX c #EDE1CB",
"uX c #F2E4CB",
"iX c #F5E5CB",
"pX c #F5EAD3",
"aX c #F9EED6",
"sX c #F3E8D2",
"dX c #FBF3DC",
"fX c #FEF7E0",
"gX c #FEF8E0",
/* pixels */
"                                                                                                                                ",
"                                                                                                                                ",
"                                                                                                                                ",
"                                                                                                                                ",
"                      < g g g k g g                                                         a g g g g w q                       ",
"                    6 v $.m.m.v.x.Y l 7 =                                               6 q Y N.V.V.N.v.G 2                     ",
"                  g Y b.m.m.N.V.V.N.m.*.g ,                                         : V m.V.H.H.H.V.N.m.v.$.l >                 ",
"                q $.v.$.F _ _ a.M.V.G.H.M.v 1                                     , v M.V.G.H.N.=.O._ Z o.x.&.l                 ",
"              8 #.x.L m ^ [ ] ' ~ _ m.H.V.b.l :                 %               , l *.m.N.V.v._ ^ ' ] [ ~ C $.Y q               ",
"            8 H v.I i } ,.,.<.;.] W o.H.V.M.i.l >             > 1 , =           8 L i.M.N.n._ Q ;.:.:.,.,.{ Z *.S 2             ",
"            l &.Y ~ >.3.3.3.1.,.:.[ ^ %.m.v.x.H 2         % 1 7 f v g >       % l #.v.N.m.o.' ;.:.<.,.,.3.5.( F U a             ",
"            H i.Z | 0.5.1.1.,.,.,.;.[ ` *.x.*.K 7 &   # : q l g v U K h q =   % b P *.x.O.^ ] } ;.,.,.,.3.6.>.m K l             ",
"            b J ~ 4.t.w.6.5.3.,.:.} ' R _ $.Y K 8 &   7 b H K G K &.&.U H b g > q G P V ^ ! ] [ :.2.0.t.t.w.5.^ A l             ",
"            q ..f.j.h.y.h.h.t.6.;.Q R p r K L B g 6 l G L $.#.&.v.x.*.&.$.Y L b f B J w 9 E ! [ 3.t.].|.|.].].h./ z =           ",
"            q O.|.].h.j.].].].t.} E p 0 3 g G h c H H Y &.&.x.H.U.G.x.&.&.$.Y L B B l 2 ; y Q ] 7.h.].].].|..X]./ z :           ",
"            q O..X|.].{.].h.w.3.[ R y 0 3 6 B H Y T &.x.x.V.~./.(.(.H.N.v.i.&.&.$.K q 2 t i Q ] 2.0.y.h.j..X+X[./ z =           ",
"            q _ [.+X+X.X].t.t.5.] E R i e 2 G Y &.i.x.V.L.U.=X,X0X,X(.^.^.m.*.i.&.Y l 2 u u y { j.j.h.j.|.+X+X[./ z %           ",
"            g Z -.OX-X+X|.].h.w.2.' u 9 q B U Y &.v.N.L./.^.(.,X=X=X(.(./.N.i.i.i.$.G h 7 9 W 2.{.{.{.|.+XOX.Xq.A l %           ",
"            l C ( }.-XOX+X.Xj.y.w.>.m 7 h L Y &.x.M.U.(././.(.,X=X,X=X(.U.U.N.x.x.i.$.K f r { 5.].{..X+XOX+X].) C l %           ",
"            q J n q.OXOX+X+X|.j.t.4.Z 8 v L Y &.x.N.~./.^.L.~.`.=X`.`.(.L.U.K.M.v.x.&.U B j ) 0.j.].+XOX-XOX9.m V g %           ",
"            4 V V ` [.-XOXOX+X{.4.` j c Y Y $.&.x.m.N.V.K.L.H.H.U.~.U.U.K.G.L.R.G.v.i.#.K l r ( [.+X+XOXOX}.( M v 1             ",
"              g N z _ q.+XOXOXf.~ e g L $.$.$.&.v.v.v.v.N.K.L.K.L.U.U.V.V.V.H.L.N.x.&.#.L b 2 r q..X+XOXk.` z x 8 #             ",
"                q v z m ` O.O._ n 8 l U Y $.Y U U Y i.x.v.m.V.K.L.H.N.v.v.v.i.$.#.&.$.$.U D 8 w Z ..-.-._ n x q ,               ",
"                = 6 j g w g j g q 8 v U Y $.D 5 1 6 b $.x.x.v.v.n.m.i.*.i.#.g < < v Y $.U K g 8 g g z z x g 2 $                 ",
"                  = , < 1 < 2 > % 8 B U $.#.8 X h c.5 L x.x.i.&.i.*.*.*.i.G c c.& # l +.L K g 2 6 2 2 2 2 = $                   ",
"                      # o o # . . 6 N Y *.L % X b C.1 D v.v.i.i.i.i.i.i.i.v c c.# @ 8 K P K x 8 & o o o o o                     ",
"                              + % f V a.b.P & X . * * D N.N.N.n.n.b.b.i.i.v # . X & g $.+.P V g &                               ",
"                              . & l G n.Z.i.6 . * @ > U N.J.E.E.J.Z.n.a.b.v @ X @ # 7 i.d.%.J l & o                             ",
"                              . . l J n.J.J.S % . . x _.&X1X7XtXeXeX%XQ.W.b.1 . . @ M S.S.a.+.v & .                             ",
"                                6 +._.2XqXqX<XE.@.+.5XuXuXuX@Xz.z. X9XtXtXeXW.U F s.:X7X2X:XS.U <                               ",
"                      $ % $ % = q K n.R.E.>XpXpXrXqXeXuXiXiX'.e.z.e.;XiXuXiXiX1X1XeX3XW.R.Z.+.M 6 O o O # #                     ",
"                          # $ = 8 U /.&X&X2XiXuXuXeX7XqXiXpXXX| ' ( *XpXuX%X:X8X8XyX7X>X>X&XE.x 1 o o                           ",
"                              # > g K T p.N._.wXeX7X1XZ.#XaXpXs.- Z.dXaX#XD.#X6X7X8XI.a.p.T K q                                 ",
"                          $ O # o & 1 M +.T.%X7X7X1X3XQ.s.<X4Xs.d J.wXU.S.1X1X1X1X1X!.s.j 2 $ #   # # =                         ",
"                        = $ $       = a I D.#X:X3X3X:X%XD.U J S S K K S Q.6X1X#XQ.Q.F.d.a <         # O =                       ",
"                                      2 j x s.W.#X$X%X#XW.J.Z.A.A.Z.A.I.#X:X$XW.S.d.F a >                                       ",
"                                          $ 2 k l l S n.B.n.n.n.b.b.a.a.d.+.S x k 6 = &                                         ",
"                                        = 2 6 6 7 g B %.b.b.a.i.$.$.%.%.U N s 6 2 < 6 4                                         ",
"                                      $ 6 N D D v #.A.I.R.I.I.R.R.E.E.E.A.a.J v l g B x 2                                       ",
"                                      , g V B B N U Z.).).)._.).#X&X&X&X%X#Xn.L K B G D l                                       ",
"                                    2 v L D v v D B.%X>X>XqX2X>X<X2X3X3XwXyX%Xv.P B B L P a                                     ",
"                                    x *.$.B v B U <XaX7XqXdXyX3XsXdXyX4XpXdXdXE.#.N B #.$.v ,                                   ",
"                                  2 D i.#.D v D n.rXdXyXyXdXdXsXdXgXdXiXaXdXpXJ.i.N N P $.L q                                   ",
"                                  k %.i.#.D B P n.wXdXdXdXdXdXdXdXdXdXdXaXaXiX#XN.J x J *.i.N                                   ",
"                                4 K G.n.*.B G #.n.1XrXdXgXdXdXgXdXaXpXsXyXyXwXE.n.K l P a.N.#.w                                 ",
"                                j a.J.Z.i.v P *.N.qXyXsXgXdXdXgXdXsXiX3X<X2X1Xn.$.K z #.n.J.n.k                                 ",
"                                A g.'.f.-.Z +.a.A.wXrX3XqXpXpXrXyXsXwX:X4X8X7XQ.Z.$.C -.g.f.f.m                                 ",
"                                m t.l.u. .Z #.%.B.1X7X%X#XqXrX<X1X7X2X1X7X7X7X$Xn.+.n | e.r.z.~                                 ",
"                                i 0.r.>.u j d.d.$.%X1X1X<X7XeX8X7X7X8XwXeX8X1XT.n.d.N 9 ^ 6.6.i                                 ",
"                  ) X.(           ^ W u e z d.D.d.n.3X1X1X1X1X1X1X7X7X8X8X8X*Xd.D.a.K < 9 r y                                   ",
"                  ) k.9.            , = q M D.P.D.%.W.$X$X$X$XoX:X1X1X1X:X%XQ.%.I U K q , ,                                     ",
"                  ( k.z.6.          3 6 s q %.D.s.K %.d.T.oXoXS.oX:X%X:XW.T.D.F S K S q 4 =                                     ",
"                    | t.k.0.) /   e e s q 6 K a.%.S +.I S.Q.T.D.D.S.Q.Q.d.+.@.x M V x l g =                                     ",
"                      u | 0.0.9._ q q q q 8 l J J M M x s.F.S.S.S.S.T.s.l V F k k x l l q =                                     ",
"                        i  .0.9._ g a w 8 6 g b v l l k K +.+.+.@.%.@.S w k x g g x z 6 %                                       ",
"                          r m m n M M q 1 7 k l g g g g g q k M M V k 8 8 q a g A _ Z t                                         ",
"                                A w 4 = 3 / 8./ q q g q 8 6 q a q q 7 2 2 7 w n 8.k.k.4.u                                       ",
"                                  t ( ` 8.z.{.h.-.( r 1 q K L K L U K h > 3 ^ 5.z.l.{.l.5.(                                     ",
"                                  r ` k.l.l.z.w.{ r w B i.H.H.H.K.Y.H.v.K g u ` 9.l.l.l.z.9.m                                   ",
"                                    r m ( | | / e b i.V.Y.K.K.K.K.K.K.H.N.Y B w u | | ) u t 9                                   ",
"                                        # & = q v i.H.K.Y.H.K.K.K.H.H.H.n.*.U x : = $ $ $                                       ",
"                                                                                                                                ",
"                                                                                                                                ",
"                                                                                                                                "
};
