/* XPM */
static char *_63026fbde8944bafc051575c6f4338b3MLvJbNZWmrcyUO2[] = {
/* columns rows colors chars-per-pixel */
"64 61 32 1 ",
"  c #D6BE9C",
". c #D8BF9C",
"X c #D9C29F",
"o c #E0C69F",
"O c #DDC5A2",
"+ c #DFC8A5",
"@ c #E1C7A0",
"# c #E2CAA5",
"$ c #E4CDAB",
"% c #E7D1AE",
"& c #E8D0AC",
"* c #E8D1AF",
"= c #E7D1B0",
"- c #E8D2B0",
"; c #EBD4B3",
": c #ECD5B3",
"> c #EBD5B4",
", c #ECD5B4",
"< c #EDD8B6",
"1 c #EED9B9",
"2 c #F0DBBA",
"3 c #F0DCBA",
"4 c #F0DBBC",
"5 c #F3DFBF",
"6 c #F4DFBF",
"7 c #F3E0BF",
"8 c #F4E0BF",
"9 c #F3DFC0",
"0 c #F4DFC0",
"q c #F3E0C0",
"w c #F4E0C0",
"e c #F6E3C4",
/* pixels */
"########################################o#####@o####o###########",
"%$$$$$$%%$$$$$%%$$$$$$$$$$$$$$$$$$$$$**$$$%%*$$$$$$$$$$$$$$%%%**",
"-%$$--$*---$$*,:**$%*%$$**;;$*:<,%%%*:***;;-;*$%******$$%**;<22*",
"-%$$,:*;,<,$$,2,--$$**%*:;<<*;251;--;:*-:<::,,*;*%;;;;%*;;>,<55;",
"--%$-,;<,;*%-;>**,,**;;:,,<2322<;---;;-;:,,,,,,1:-251<;:,;,:,21<",
"------->>;;,<,;-*--*-;,,123552<>;-;;:;:,,<,,,,;<,;273211,,<11211",
",;>,;%*--;,<1<>;*%---;<35532<;;--;;,,:,<12<<<<,*;,<3<<<,,,1333<<",
",,>,,;>>,<<<11<>--;;,1155332,-;;;,,,<<11333311<;;;;,<<,,,,<113<,",
"1<,,,<1<<1213221,,<155315w52,;,,:,<,13555553112<,<<2551<<,<1151<",
",<,>,<1,,<<<1<55525555213w55511<<12155wwwq51<11<<135232<1111255<",
",,>;;<,;--;;,,353555553225qw555112555wwwww5111<,,<3513553322351>",
",---;1<;-;;;15555555352225q535w552555wwew5311<,;:,133355523332<,",
";--%%,<,;,,<35555ww5523258wq55w5525555www5211<<,<<15552111113311",
"-,;-%;,,,,<,<1355www53325www335333555555551<<<125555553<12115753",
"%,,>11;>,,,;;,13555555552555222233553253111<<1135552235555555521",
"%-,>55,,,;;--,155555555522555533535533553111111231111355355q531<",
"-%-,55<,,;-;;;,25512555222255555535555w55511111111<12153155ww553",
"%$-<5511<,>>;,<25512113235555555555q55w0w511122121115221155q5532",
"%%>,>12>>,,,,1555512123557w525w755555555w52223311112552<1255321<",
"**;;-><-;11,<555552355555752,2q5222211<29513321<<<11551112553522",
"---=--;--121,,35555555w56w5<,<5211<1,,,15111211<,>11551111211533",
"----;;;---,55,<255535q555555<<111<,,,,,,1<<25<13<,<111<<<,<<<131",
"---->>,;-;,31,15555512523555,11<11,,,<,,,11121551,<<111,,,,<1111",
"%%--;;,,-,<;->1555551,33<<11<151122112,;,11,<111<<1111<1<>,15531",
"$$->;--,,<<<>,<153551>,1<;;,,,21112123,;,,,;>;>,,<11111571113551",
"---;;;-><<,,1<<111555<,151>,,,<12111351,<1,,,;,111,1<<15w553331>",
"1,-;,,>,2,*-<111111551<<555521<12222112255335<1qw1<53<,1355531<;",
",;-->-;<51;;<21111112112555521<<<12511231111235q73151,;,<1333<,;",
"%$%=--;<131>,,>>,11,,<,,,;;;;--;;<121331<151115555<<,,<;;,,,<,;>",
"$%$$$$-><21>---;;,,;;,;--*%----;;<1<,,,,,<11115531,,<11,>,<,>,;;",
";;-%-%-;>,,,;->,--;;->;;:--;;,<,;>,>;;;;><<231<>,1,><,;>;<1211>;",
"<<>;,,---;<1,,11>;---*->,;>,,,<,;---;,:;;,1135<<11>>,;*;;--;;;;>",
"<1>%>>$$$>15<,11<,;--$$-,;,,;;;;*%%%;<;;;;>>151111<<<<;<1%%$%-;;",
"<<>--;%$-<13,%%;,,;;-%$*-**%%$$$$%%%--$%;-%-11111>33,<,,;%%$->>;",
">>1<-;>>;<,>-$$$*;>--%$$$$$%$$$$%-;>-*$$---,1;;<>;11;<,-%$$$$%-%",
"%;,;$-145<,-1,----,%$-%$$-,1%$-;,,,2,-**;;,,;-;<;;11;<;%%%%$$$$%",
">;-$$$-><,,->>>>;->-$%%$*,<<*-;>1,,112,;<>>;;-><>>11><;$$%--%;;%",
";$$$$$$$=;>$$----%--%$$$*11;,;;;<,;<121,>-%--%%;;;,;%;-$$%;--,1;",
"=%%$$#$$--;%$$%%$$$-;%-%;<<;<<,,,,;-,1,-$$$-,;-%$%,-$$$$$%%%;>;-",
"--;-$$$$,>><;$$%$#$-,>;%,31111<<,>;>>;%$$%<11,-$$%,-%$$$$$$$%;;;",
"%%===%$%;,<<<,;$O$$%;<;-123qq5<<,>,1;*$$$>11<>;;;%--;--%%=%$$;>>",
"$$=%;>--%,1<13<;%%%$%,<23<131<>>>>,,,>$$%,111;;;;%%;>>,;;;*$$-;=",
"$$>->1,-$>2>>1,;;%$$$>252,11,;-;,;-,,,$$%,121;%%$$-,1<>>>;-$$%$$",
"$$$%%->-$%,;%%%$*%$%%%;,<,<1;;;><>;;,<-$;>,11;$$%-;;;--;>,;$%%$$",
"%$$$$---$%,1,--*%;;,-$$-,;,1-**--,;-,1-%>>;1<>%%;,>;$$%;;;*$$%$$",
"$%;;->$$%-;<1,;-$$-;%$$-,-*;;-*-;,;%%$$$---,;;>;%%-%*-;;*$$$$%%=",
"#$=-=;$$%-%%>;;-$$%-$$$$$$$$$$%;;--%$$%%%-;-$$--%%%%;;>%$%-%-;--",
"%-%$$%$$$%$$%%--$$$$-;$#$$##$$%;-%%$$$%%$$%-$$$;;;--;;-$$-;-;>>;",
";$%$$$$$$%%%$$-$$$$$;>%--%%$$$%$$$$$$$*-$$%-%%$*%%;---%$$%%$-<,>",
"%$$$$$$$$%%$$#$$$$$$%-*;-%--$$%$O##$$$$$$$$$$%$$#$-%$$$##$$#$;-%",
"$$$%$%-%$#$%%-*$#$-$$$%-;%-;%$$$$$$$$$O#$$$$$$#$$$%%$$-##%%#$*%%",
"$-=%$$;%$$$$->;;%-;$$%%-;$$-%$$$%;*######$%%%$$%%$-;;;>$$-*$$%;-",
"#$$$$$%$$$$#$$*>,;%$$$$;;%$$$$$$$$$OO+$$$$$$$#$=;-%--$$$#$$$$;;;",
"OXXX#$$$$$$$$***;;$#O#$%*%$$$$$$OOOOO#*-*$$$$$#%-%%*-$$$$$$$$;--",
"X   #$$##$$$$;;%%-%$###$$##+#$%$#OOOO#%;;$$$$$$%$$$%$$$$$%%$$$$$",
"OX XOOOOOO+$-;;;*$$##+OO##OOOO$%$$$$#$-;%##$$$#$%*-*%%**----$$+#",
"OOOOOOOOOXO-,,;,,*$##+OOO#+OOOO$$#$$$%-,$#$$$$$-;--;;;-*;%$%$#+$",
"XXOO#+OOO#$$-;-;,%$OOOO#OO$#O.XOOOO#%>;;%$%$$$$%%$$->;$$-$O+##O$",
"OXOO$+OO#$$O$-$$*$$$$#O$$$$%#OO+####*<<;%%%$$$#+OOO$;;$#$$O#$+OO",
"OOOO++OOO$#O#$##OO+$#OO$##$$#O+OOOO+$%-*$#++#OOXXXO+$#OOO+O$+OOO",
"OOOOOOOOOO+O+###OO++#OO#OO##OOOOOOOO#$##+OOOOOOOXX++OOOOOOOOOXXO"
};
