/* XPM */
static char *result[] = {
/* columns rows colors chars-per-pixel */
"64 64 168 2 ",
"   c #E2CAA5",
".  c #E0C7A0",
"X  c #E1C7A1",
"o  c #E6D0AD",
"O  c #E4CDAB",
"+  c #E4CDAA",
"@  c #E7D0AE",
"#  c #E4CCAA",
"$  c #E7D0AD",
"%  c #E7D1AD",
"&  c #E8D1AE",
"*  c #E8D2B0",
"=  c #E7D1AF",
"-  c #E4CEAC",
";  c #E8D1AF",
":  c #EBD4B3",
">  c #EBD4B2",
",  c #EAD3B2",
"<  c #E5CEAC",
"1  c #ECD6B4",
"2  c #E7D1AE",
"3  c #EAD4B2",
"4  c #E7D0AF",
"5  c #ECD7B5",
"6  c #EFDAB8",
"7  c #EFD9B8",
"8  c #EBD5B3",
"9  c #ECD5B4",
"0  c #EDD7B5",
"q  c #EFDAB9",
"w  c #F2DDBD",
"e  c #EED8B8",
"r  c #ECD5B3",
"t  c #EDD8B6",
"y  c #F2DEBE",
"u  c #E8D2AF",
"i  c #E9D2B1",
"p  c #E9D2B0",
"a  c #E6D0AE",
"s  c #ECD6B5",
"d  c #EEDAB8",
"f  c #F0DBBA",
"g  c #EED9B8",
"h  c #E9D3B1",
"j  c #EDD8B7",
"k  c #F1DCBC",
"l  c #F0DBBB",
"z  c #EFDABA",
"x  c #EDD7B6",
"c  c #EBD6B4",
"v  c #EBD5B4",
"b  c #EFDBB9",
"n  c #EED9B7",
"m  c #F3DFBF",
"M  c #F0DCBA",
"N  c #EDD8B8",
"B  c #EED8B7",
"V  c #EED9B9",
"C  c #EAD4B3",
"Z  c #F1DDBD",
"A  c #F1DCBB",
"S  c #EDD6B5",
"D  c #EAD3B1",
"F  c #F1DDBB",
"G  c #EDD6B6",
"H  c #EFDBBA",
"J  c #EDD7B7",
"K  c #F2DEBD",
"L  c #F1DDBC",
"P  c #ECD7B6",
"I  c #F0DCBC",
"U  c #F0DCBB",
"Y  c #F4E0C0",
"T  c #F3E0C0",
"R  c #EBD4B4",
"E  c #EAD5B3",
"W  c #F5E1C2",
"Q  c #F5E2C2",
"!  c #ECD4B4",
"~  c #F4E0BF",
"^  c #EED7B6",
"/  c #F4DFBF",
"(  c #F3E0BF",
")  c #F3DFBE",
"_  c #EEDAB9",
"`  c #F2DFBE",
"'  c #ECD5B5",
"]  c #E8D2B1",
"[  c #F4DFC0",
"{  c #F3DEBE",
"}  c #F0DBB9",
"|  c #F3DFC0",
" . c #E7D1B0",
".. c #EDD9B7",
"X. c #E9D3B2",
"o. c #E5CEAB",
"O. c #ECD6B6",
"+. c #ECD7B7",
"@. c #EFDBBB",
"#. c #F1DEBE",
"$. c #EED7B7",
"%. c #E5CFAC",
"&. c #E5CFAD",
"*. c #E6CFAD",
"=. c #EBD6B5",
"-. c #E8D1B0",
";. c #EEDAB7",
":. c #E9D4B2",
">. c #E6CFAE",
",. c #E6CEAD",
"<. c #E4CEAB",
"1. c #E2CBA6",
"2. c #EEDABA",
"3. c #DFC7A4",
"4. c #F2DFBF",
"5. c #F0DAB9",
"6. c #E4CDAC",
"7. c #E5CEAD",
"8. c #E6D0AF",
"9. c #E2CBA7",
"0. c #E9D3B0",
"q. c #E5CFAB",
"w. c #E3CBA7",
"e. c #E6CFAC",
"r. c #E3CCA9",
"t. c #E3CBA8",
"y. c #E0C8A6",
"u. c #E4CDA9",
"i. c #E1C9A7",
"p. c #E0C9A6",
"a. c #E3CCA8",
"s. c #E0C7A3",
"d. c #E0C8A4",
"f. c #E1C9A5",
"g. c #E1CAA8",
"h. c #E1CAA7",
"j. c #DDC5A2",
"k. c #E0C9A5",
"l. c #DBC4A1",
"z. c #D8C09E",
"x. c #D8C19E",
"c. c #DFC7A3",
"v. c #E4CCA9",
"b. c #E2CBA9",
"n. c #DDC5A1",
"m. c #DAC3A0",
"M. c #D7BF9D",
"N. c #D6BE9C",
"B. c #E2CBA8",
"V. c #E1C9A4",
"C. c #E2CAA8",
"Z. c #DFC8A5",
"A. c #DFC7A5",
"S. c #E3CBA9",
"D. c #DCC4A1",
"F. c #DEC6A3",
"G. c #DDC6A3",
"H. c #DBC4A0",
"J. c #DEC6A2",
"K. c #DCC5A2",
"L. c #DAC29F",
"P. c #D9C29F",
"I. c #E2CAA6",
"U. c #E3CCAA",
"Y. c #DEC7A4",
"T. c #D9C09D",
"R. c #DFC8A4",
"E. c white",
/* pixels */
"                                                                                .           X .         .                       ",
"o O + + O O O o o O O + + O o o O O + + O + + + O O O O + O O O O + + + O @ @ O # O o $ @ O # # + O O + # + + + + O O o $ % & @ ",
"* @ O O = = - ; * ; = O O ; : > ; @ O @ @ @ O O @ ; , , < ; > 1 : 2 2 2 ; > ; ; ; , 3 * , ; O @ @ 4 ; ; ; @ O O @ 2 ; 3 5 6 7 * ",
"* 2 O O : > ; , 8 5 : O O : 7 9 * * O < ; ; @ 2 > : 0 5 ; > q w e 3 * * 3 r ; * > 0 r 8 9 : ; , ; 2 , , > , @ @ , > : 9 t y y : ",
"* u o O i 9 : 0 9 8 p a = : s p ; : , @ ; , , > 9 9 t q d q f g 9 h * * : : * 3 r 1 9 9 9 9 : j > * 7 k e 5 3 > 9 : 9 r s l z x ",
"* * u = * h h c v : , : 1 9 : * ; h h ; * : 9 9 j 7 b y y f n s : * , 3 r : > 9 9 0 9 9 9 9 v j 9 : f m M q N B 9 9 0 j e f V g ",
": , C : , = ; h h : 9 x g 0 v , ; = * * * : 0 6 Z y M A q S v h h , : 9 9 r 9 0 j q 0 0 0 0 9 D : 9 n F n n j G 9 9 g H f f j j ",
"9 9 v 9 9 D , 3 : s 0 t V g 5 8 * u , , 3 J g K m L M f s h : , , 9 9 9 0 0 J g H M b b g g 5 , : : 9 x t t 1 9 9 9 j q q M t s ",
"j 0 9 9 9 s J P x g q g H z 6 J 3 3 s J l Z H I m y K f 9 , : 9 r 9 5 9 j q Z Z K K K M V V 6 5 9 s s B A A j 0 0 9 t V V Z g 0 ",
"x t 9 9 9 t V 0 0 g g g q 6 w k f g U Z m m M V L Y m w f x J 0 0 J g J k K Y Y Y T m z n V q t 0 g q w w L q t N J N V z m k j ",
"9 S 9 v 9 t x R 3 E 1 1 x s L m K w m m m m M z M m T Y m k I g N z L k m Y Y Y Y Y m V g V j 0 0 g M m z M L U H H z z M m k 5 ",
"9 3 3 , : j s : * h : : x q L m L m m m K m M f f m T m K m m k I f m m m Y Y W Y m K V V e s 9 r 0 b L q M m m K M M M M L j v ",
": * * u h J t 8 h : : s H m m m m m m m L w f f L m T m L m Y m m l m m m Y Y Q Y m M V V t s : 1 s V L L L w Z Z z H H M f j x ",
", h h = 2 : 0 9 ! 9 s x b Z K m m Y Y m m f M f m ~ Y T y K ~ K K M m m m m Y Y Y m z g g t j ^ q b l m m m f N V V V V L L l z ",
"* 9 : h h 9 9 9 9 9 0 9 5 j H K m Y Y Y m L L k K Y Y / M M w M M M m m y y m K Z Z V t t j V M m m m y K K F q l k l l m ( y f ",
"2 : 9 v z z v v 9 9 9 , , 9 V F m m m m m m m m f y m m k A f f F M m m M f ) F _ V V j j V V M K w w f z M m m ` m m m m K z g ",
"= * : ' ) m S 9 9 : , i h 9 e y m m y y m m m y f f y m m m F F m U m m F F m m F z V V V V V z H V g V V f m y M m m T m F z n ",
"* @ * s ) m j s 9 : h : : : 1 f m m V f y y y f f A A m m m m m m F m m m m Y m m m V V V V V V V V j V l z y f V m m Y Y m y M ",
"2 < ] t w y _ e x 9 v v : s n U m m V f V V M U F m m m ) m m m m m m T m m Y [ Y m q V V f f V f V V q { A f V V y m T ) y M } ",
"2 2 v 9 v g q v v ' ' 9 1 z m m m m q f z f U m m ( Y { f { Y ( ) ) ) ) y y y m Y m f f f M M V V V V f m m f j V f m m M l V j ",
"; ; : : ] v 0 h : g V s t y m m m m l U m m m m m ( m f S f T ) f f f f V V j f | y _ M M f V t t t V V m m V V V f { y M { f f ",
"* * *  .* ] : * ] N z V S S M ) m m m ) m m Y m / Y m n 1 j y f V V t g ' 9 9 V y _ V V f V V t 9 v V V y y V V V V f V V y M M ",
"* * * * : : : * * h s y w s j l m m m F m T m m m m m y t t V V V t 9 9 9 9 9 s V j j f y ..V f t 9 t V V V j t t s t t j _ M V ",
"* * * * v v 9 : * : 9 M _ ' V y m m m y z U ) U U m m { S g V j V g 9 9 9 x 9 9 s g V V f V y y V 9 t j V V g s 9 9 9 t V V V V ",
"2 2 * * : : 9 9 * 9 x 9 X.v V m m m m m V S M M n n z z t V K V V f q e g q 9 : 9 V V s j V z z j t g V V V j e x v 9 V y y M V ",
"o.< * C : i h 9 8 x t 5 : 9 j z m F m m V v S V t v 9 s 1 S l V V V f V f f 9 : 9 s s : v 9 s s 1 t V V V V V y K g e V F m y V ",
"= = * : : , * v 0 t s s N x t V z z m m w x 9 V L N v 9 9 9 B V z V V V M K e 9 0 j 9 9 9 : 9 j N g G V j j V m Y y K f M F z O.",
"+.: * : 9 9 C 9 6 1 i h j g g V V V l m m g x ..m w k k 7 N t V f f z z q @.z q Z w q q A x e #.y V t Z b t x @.L m m y M q j : ",
"G 9 * h v , : x w j , , t z V V V V V l k V g q m | T m l V t j n q f w V V f M l l q z k b Z T ( H V m z s : S n l L L M j s : ",
"p @ = * h * : t l H J v S ^ P P x V V x x j x $.7 e e B x E 3 9 1 j q k V H M q j V k V q z m m m K g q G 9 s : 9 G x t n s : v ",
"< %.%.&.&.*.h s j f V v , , X.: 9 x x : : s : D h p * i h * * : : t V g x B B x S B l V V V m m L l 0 s 0 J g 9 v 9 s 9 1 9 : : ",
"; p o %.*.%.* : s B x v h * X.: h , : : , v : D D ; = h h 3 8 8 : s x s : : : : 9 t j q q V f q B g 9 9 t J G 9 v 0 g B J J v : ",
"s 1 3 h 3 h * , 3 : s x 9 3 P x X.h h h * , , v r , , : 9 9 t 9 : 3 , 3 : : : : v 0 n z M U t s x V 9 v s : D : : 8 =.B J x v v ",
"t j v D 9 v @ a a : j l 0 s V V 5 8 h * * *.a 3 9 : 9 9 9 9 s 9 D u = u : s r : : 9 J j H m g n V V s s s 9 h 1 s u = ; i D : v ",
"t e v = 3 : < O *.s V K x 3 =.J 0 9 : h * < O ; 3 , > , D -.-.-.*.2 2 2 , v p D : , X.C V k V V V j d ;.x t 9 0 J = 2 O = X.: : ",
"5 5 O.3 * : * a h t j g 3 o *.-.> 9 : , * 2 O @ @ $ *.% *.O O O < 2 * * * ; O o , * = h V J J g j v b b 9 t 9 : h o *.O @ 3 C D ",
"3 v j 5 = 3 O.J J t 9 C :.>.< < ; , v * = 2 < O O < >.h < O < *.* h : s h ; < < p h h 9 J 3 : t v : V V : t 9 * 2 < < O O o @ 2 ",
"* : : i O = J z Z t 9 h j 9 h h h * v = O u 2 O < h s N = &.i : s 9 9 q S 3 p p v : 9 9 : * : t : v V V v t : @ o 2 2 < < ,.*.2 ",
"v D = O O O = , s 9 9 ; , C C C 3 * C * < o o O ; s t 5 p i : v e 9 9 g V f S v 0 8 C 3 , * C 5 v v N N 8 5 , O O 2 p * = : v u ",
", < <.O O + O O  .3 : < O = * * = @ = * = < < < p e g : 9 8 : : 0 9 : 5 e z e v 3 = @ * p ; = , , 3 9 3 2 D = O O 2 , * i 9 N : ",
" .2 2 < O 1.O O * i : u < O @ 2 O + O * : u * 2 : t t 9 t t 9 9 9 9 : h 9 N 8 ; O <.&.h 9 : * @ O 2 r * < O O O O o 2 2 3 v : i ",
"* * , * - O O < : v v x : < < o # 1.O * 9 v : ; 9 f V V 2.V t t 9 v : v v : 2 O O = x V g 9 * < < 2 : * 2 < O O O O O O 2 : : : ",
"2 2  . . .2 < 2 : 9 t t t 9 3 < 3.+ O 2 : 0 : h g f M 4.4.y t t 9 v 9 N : ; O O < v V V t v : : , 2 * * 3 * * 2 2  .2 O < 3 v v ",
"O -  .= C 8 * * ; 9 g t g b t 3 @ 2 @ < 2 9 t q f j V M V j v v v v 9 9 9 C O O 2 9 V V g : : : > 2 2 : v v 9 : : : ; O O * 3  .",
"O O C * v N v * < v q =.=.g 9 : 3 2 <.O < v 5.y f s V V s : h : 9 : h 9 9 v < O 2 9 V f V : ; 2 < < * 9 N x v v v : * O O 2 < 6.",
"O O < 2 u h v * <.u 1 : u u ; < ; 2 O o @ u 9 G t 9 t V : : : v 0 v : : 9 0 ; < , v s V V : < < a ; 3 : v h h : v 9 , < o 2 O O ",
"o O O <.< * h * O 2 9 j : * u @ 2 , , : * < 7.i 9 : s e h p p h h 9 : h 9 N * 2 v v R V j v @ @ , 8 v : 7.< 2 : : : -.O < 2 O O ",
"< a i i = C < < o * : j e 8 3 * < *.i : = O O * 9 h p 9 3 * ; * , 9 : = u a < < ] h h s 9 : C , u u h u @ = , : p *.< O O 2 o 8.",
"9.< ] h * : O O 2 * u 0.s R : * O O 2 p < O O < *.< < *.*.%.2 , : h i 2 < O o o = * , h *.*.h i 2 2 2 2 , 3 v u < o @ o = D * * ",
"q.@ 2 &.7.u O O < 2 < < * * h * O O < &.@ -.O w.+ O 9.9.O O 2 : h = 2 < O O 2 2 < &.u * O O &., , D u * : : h < O u , * 3 v C , ",
"D *.2 O O < O O O 2 o o < %.* &.O O O O , 8 o e.a o o.r.O O 2 a *.%.< O O O ; u O O 2 * o *.O p p p , * h h = O O = * *.h 5 9 v ",
"p O < O O O O O O 2 2 %.O t.%.O O O O O p X.; , * 2 u a O O 2 O y.9.w.O O O *.*.O O %.*.%.2 O < u.%.h = *.*.< t.t.< < t.*.v , h ",
"%.O O %.O *.a *.O u.%.*.e.o.*.O t.O *.O %.*.= h h 2 * , *.O %.O i.t.t.O O O p.t.O O O O O %.a.+ t.O 2 2 O O *.    %.%.  O p = 2 ",
"O *.>.2 O *.h 2 O t.O *.u 3 D 4 + *.h O O %.2 * : *.a h 2 O O O *.; *.a.a.t.s.  t.O %.*.%.O a.%.%.O = p ; ; X.r.r.= 2 a.O 2 p = ",
"r.@ a *.O O p *.O O O r.a -.D v D h h 6.O *.*.h : &.O o *.O O O o -.*.d.d.f.w.w.t.O *.*.*.r.O = p a u , , -.-.O r.a *.O O p : , ",
"d.p.p.p.r.O %.O O O O t.O < ; , 9 : *.r.g.r.O h D 2 O O O O O O h.h.i.j.j.k.< *.&.O O O O w.r.= , * 2 u * O O O t.O O O O : , , ",
"l.z.z.x.  O O r.r.O O O O p p ; h , < w.c.  v.o o q.r.b.r.O < O c.j.n.j.j.  & h p O O O O O t.2 a o o 2 a O O O O < < O O -.@ @ ",
"m.M.N.M.d.B.B.V.V.B.r.O &.: : * 2 @ o v.  f.V.C.r.  d.3.d.B.o < w.Z.A.A.c.w.2 : D + r.O O O # *.< < < 2 < < < < &.= = &.O O S.r.",
"j.m.z.m.j.j.j.j.j.D.3.< h : : : p < O     Z.j.j.V.  F.j.j.j.b.o O + O O w.< * : o   1.O O O w.< u ; * p u u ; ; h * = u O r.Z.1.",
"D.D.j.j.F.G.j.j.j.H.3.= : 9 : 9 9 ; O f.V.3.j.J.j.V.p.F.j.D.K.b.b.f.b.# < u i : < w.<.O O O O * , = = 3 : : = 4 , o r.%.#   Z.O ",
"L.P.j.j.I.Z.j.j.F.I.O U.= , -., : @ O Y.F.F.j.I.Y.Y.+ w.J.T.L.j.J.J.F.  2 v v : 2 < 2 O O O + e.%.U.U.= v : O + = O G.Z.I.f.F.b.",
"j.m.j.j.r.Z.j.j.f.O U.F.+ = O + *.U.U.O # f.F.+ + + O o   j.j.R.f.f.f.I.@ 5 5 > 2 o o + + U.f.Y.j.j.j.U., i U.  U.U.F.I.U.Z.j.j.",
"j.j.j.j.Z.Z.j.j.G.r.  J.  +     J.j.Z.U.  j.j.U.    + + f.j.3.j.j.j.j.Z.+ 2 = @ +   Z.Z.f.j.j.m.P.P.j.Z.U.  j.j.j.Z.G.r.Z.j.j.j.",
"j.j.j.j.j.j.j.j.j.G.Z.j.Z.      j.j.Z.Z.  j.j.  J.J.    j.j.j.j.j.j.j.j.  O 1.  Z.j.j.j.j.j.j.j.P.P.Z.Z.G.j.j.j.j.j.j.j.j.P.P.j."
};
